<svg xmlns="http://www.w3.org/2000/svg" viewBox="0 0 1440 320"><path fill="#5000ca" fill-opacity="1" d="M0,96L24,96C48,96,96,96,144,85.3C192,75,240,53,288,69.3C336,85,384,139,432,186.7C480,235,528,277,576,250.7C624,224,672,128,720,106.7C768,85,816,139,864,181.3C912,224,960,256,1008,261.3C1056,267,1104,245,1152,208C1200,171,1248,117,1296,133.3C1344,149,1392,235,1416,277.3L1440,320L1440,320L1416,320C1392,320,1344,320,1296,320C1248,320,1200,320,1152,320C1104,320,1056,320,1008,320C960,320,912,320,864,320C816,320,768,320,720,320C672,320,624,320,576,320C528,320,480,320,432,320C384,320,336,320,288,320C240,320,192,320,144,320C96,320,48,320,24,320L0,320Z"></path></svg>