<svg xmlns="http://www.w3.org/2000/svg" viewBox="0 0 1440 320"><path fill="#5000ca" fill-opacity="1" d="M0,192L24,186.7C48,181,96,171,144,186.7C192,203,240,245,288,256C336,267,384,245,432,213.3C480,181,528,139,576,144C624,149,672,203,720,229.3C768,256,816,256,864,218.7C912,181,960,107,1008,64C1056,21,1104,11,1152,32C1200,53,1248,107,1296,122.7C1344,139,1392,117,1416,106.7L1440,96L1440,320L1416,320C1392,320,1344,320,1296,320C1248,320,1200,320,1152,320C1104,320,1056,320,1008,320C960,320,912,320,864,320C816,320,768,320,720,320C672,320,624,320,576,320C528,320,480,320,432,320C384,320,336,320,288,320C240,320,192,320,144,320C96,320,48,320,24,320L0,320Z"></path></svg>