<svg viewBox="0 0 467 444" fill="none" xmlns="http://www.w3.org/2000/svg">
<path d="M206.16 190.239C267.68 169.397 295.714 128.827 227.997 7L190.969 50.6735H121.661L81.7854 7C30.9842 66.2194 2.66714 186.078 113.116 190.239M206.16 190.239C198.547 189.177 223.566 194.4 113.116 190.239M206.16 190.239C203.566 200.132 246.961 265.773 316.292 281.383C335.994 285.82 350.019 298.852 358.433 315.563M113.116 190.239C113.122 319.838 130.85 372.498 101.722 388.668C72.5954 404.839 68.2464 433.329 107.419 433.291C146.592 433.253 247.934 447.533 316.292 433.291C365.225 423.097 379.629 357.658 358.433 315.563M4.88135 123.779L77.0375 117.133M17.2238 159.857L77.0375 145.616M45.7065 195.935L93.1777 164.604M233.692 117.133L307.747 123.779M233.692 145.616L298.253 159.857M218.502 159.857L265.973 195.935M358.433 315.563C380.792 293.299 335.387 198.074 358.433 159.857C381.48 121.641 452.06 129.476 459.655 159.857C467.25 190.239 464.402 225.368 424.526 224.418C384.651 223.469 384.651 183.593 395.094 174.099C405.538 164.604 420.706 160.104 434.97 174.099C440.211 189.085 438.097 195.996 424.526 205.43" stroke="black" stroke-width="8" stroke-linecap="round"/>
<path d="M207.479 343.767C231.133 335.754 241.911 320.156 215.875 273.316L201.639 290.107H174.991L159.66 273.316C140.128 296.084 134.872 342.361 171.706 343.767M207.479 343.767C192.37 342.94 208.54 345.173 171.706 343.767M207.479 343.767C206.482 347.571 223.166 372.809 249.823 378.811C257.398 380.516 262.79 385.527 266.025 391.952M171.706 343.767C171.708 393.595 178.524 413.842 167.325 420.059C156.126 426.277 154.454 437.23 169.515 437.216C184.577 437.202 223.54 442.692 249.823 437.216C268.637 433.296 274.175 408.136 266.025 391.952M130.092 318.215L157.834 315.66M134.837 332.086L157.834 326.611M145.788 345.958L164.04 333.911M218.065 315.66L246.538 318.215M218.065 326.611L242.887 332.086M212.224 332.086L230.476 345.958M266.025 391.952C274.622 383.392 257.165 346.78 266.025 332.086C274.886 317.393 302.023 320.405 304.943 332.086C307.863 343.767 306.768 357.274 291.437 356.909C276.105 356.544 276.105 341.212 280.121 337.562C284.136 333.911 289.968 332.181 295.452 337.562C297.467 343.324 296.654 345.981 291.437 349.608" stroke="black" stroke-width="6" stroke-linecap="round"/>
</svg>

