<svg viewBox="0 0 395 395" fill="none" xmlns="http://www.w3.org/2000/svg">
<path d="M196.438 371.864V391.845" stroke="#E09B33" stroke-width="5" stroke-linecap="round"/>
<path d="M107.784 306.977V335.504C182.016 360.262 221.376 359.461 288.091 335.504V306.977C212.95 328.859 174.039 326.225 107.784 306.977Z" fill="#F82222"/>
<path d="M107.784 306.977L108.481 304.576L105.284 303.647V306.977H107.784ZM107.784 335.504H105.284V337.306L106.993 337.876L107.784 335.504ZM288.091 335.504L288.936 337.857L290.591 337.263V335.504H288.091ZM288.091 306.977H290.591V303.645L287.392 304.577L288.091 306.977ZM105.284 306.977V335.504H110.284V306.977H105.284ZM106.993 337.876C144.231 350.295 172.922 356.374 200.766 356.272C228.622 356.17 255.443 349.884 288.936 337.857L287.246 333.151C254.025 345.081 227.808 351.173 200.748 351.272C173.675 351.371 145.57 345.471 108.575 333.132L106.993 337.876ZM290.591 335.504V306.977H285.591V335.504H290.591ZM107.086 309.378C140.302 319.027 166.843 324.567 194.575 324.9C222.311 325.234 251.084 320.357 288.79 309.377L287.392 304.577C249.956 315.478 221.703 320.226 194.635 319.901C167.562 319.576 141.52 314.175 108.481 304.576L107.086 309.378Z" fill="black"/>
<path d="M197.062 322.576V248.048M197.062 322.576C372.052 317.601 399.901 199.609 325.728 103.326C333.436 56.1063 328.848 39.0866 321.352 8C272.623 37.435 248.452 54.1502 247.829 86.8606C210.827 77.0122 189.511 77.4141 150.673 86.8606C133.615 35.4657 112.189 24.0446 71.0223 8C63.5103 52.0286 62.3342 73.964 71.0223 103.326C-4.89448 217.231 48.9238 322.436 197.062 322.576ZM109.535 276.646L31.6347 318.243M94.6548 253.248L8.00223 261.914M94.6548 225.517L1 211.651M299.47 225.517L394 211.651M304.722 253.248L389.624 261.914M288.091 276.646L363.365 313.91M117.412 182.187C138.689 158.419 149.692 157.374 167.303 182.187M228.572 182.187C248.251 159.795 258.874 157.658 276.713 182.187" stroke="black" stroke-width="10"/>
<path d="M216.243 373.442C216.243 383.888 207.457 392.5 196.438 392.5C185.419 392.5 176.632 383.888 176.632 373.442C176.632 362.995 185.419 354.383 196.438 354.383C207.457 354.383 216.243 362.995 216.243 373.442Z" stroke="#E09B33" stroke-width="5"/>
<path d="M179.032 226.61L196.438 252.728L213.844 226.61H179.032Z" fill="#FC85D4" stroke="black" stroke-width="5"/>
</svg>

