<svg viewBox="0 0 237 282" fill="none" xmlns="http://www.w3.org/2000/svg">
<path d="M27.6373 123.385C21.678 134.702 27.0355 148.769 40.2022 154.608C53.3689 160.446 68.7072 155.557 74.6666 144.24C80.6259 132.922 75.2684 118.856 62.1016 113.017C48.9349 107.178 33.5966 112.067 27.6373 123.385Z" stroke="black" stroke-width="5"/>
<path d="M73.5726 145.886C73.2741 133.287 70.2836 128.138 60.7032 121.835M63.7169 154.905C66.9624 141.554 65.8852 135.46 57.6739 127.589M58.2211 156.753C57.7684 154.479 58.0123 154.034 57.4478 152.125M52.8887 157.736C47.3402 142.604 41.3142 138.222 25.156 137.806M45.236 156.752C40.4379 147.032 37.1224 145.204 26.639 142.748M61.5558 111.903C60.9032 121.178 59.741 125.944 54.4072 131.63M48.3362 137.01C52.3281 139.934 55.6117 145.917 57.4478 152.125M48.3362 137.01C50.7663 135.139 52.7632 133.382 54.4072 131.63M48.3362 137.01C46.3498 135.555 44.0045 134.451 41.2085 133.643M57.4478 152.125C60.3624 144.605 58.7331 138.854 54.4072 131.63M41.2085 133.643C36.9453 132.412 31.6343 131.87 24.9504 131.823C39.9246 128.416 44.7606 123.496 47.7189 109.918M41.2085 133.643C50.4765 127.404 52.5759 122.591 52.8887 109.918M42.0436 111.552C37.4313 120.437 33.2486 123.947 26.1562 125.931M28.2855 146.825C16.0363 152.909 21.7957 145.019 18.7203 143.655C15.6449 142.291 16.1974 147.892 13.4356 147.872C10.6738 147.853 8.82213 146.382 7.28478 145.145C5.74744 143.908 2.54375 145.69 2.09457 147.797" stroke="black" stroke-width="4" stroke-linecap="round"/>
<path d="M141.825 102.965V225.061M141.825 247.143V225.061M171.076 102.965V199.083M171.076 247.143V199.083M141.825 225.061L171.076 199.083" stroke="black" stroke-width="8"/>
<path d="M141.825 194.754L170.604 171.373M141.825 164.446L170.604 140.633M141.825 131.54L170.604 105.129M50.769 186.094V240.648M50.769 247.143V240.648M80.0202 186.094V215.969M80.0202 247.143V215.969M50.769 240.648L80.0202 215.969" stroke="black" stroke-width="8"/>
<path d="M222.276 180.466C222.276 187.983 215.526 194.65 206.461 194.65C197.396 194.65 190.646 187.983 190.646 180.466C190.646 172.948 197.396 166.281 206.461 166.281C215.526 166.281 222.276 172.948 222.276 180.466Z" stroke="black" stroke-width="8"/>
<path d="M50.769 214.237L80.0202 189.125" stroke="black" stroke-width="8"/>
<path d="M97.0053 102.964H206.461H216.369C225.805 102.964 225.805 72.6567 216.369 72.6567L201.093 72.6567C170.348 72.6567 105.288 72.6566 97.0053 72.6567C86.6258 72.6569 86.6258 102.964 97.0053 102.964Z" fill="#DBBFF8"/>
<path d="M206.461 163.58V102.964M206.461 102.964H97.0053M206.461 102.964H216.369M97.0053 102.964C107.385 102.964 206.933 102.964 216.369 102.964M97.0053 102.964C86.6258 102.964 86.6258 72.6569 97.0053 72.6567C105.288 72.6566 170.348 72.6567 201.093 72.6567M216.369 102.964C225.805 102.964 225.805 72.6567 216.369 72.6567M216.369 72.6567L201.093 72.6567M216.369 72.6567C214.462 72.6567 208.878 72.6567 201.093 72.6567" stroke="black" stroke-width="8"/>
<path d="M13.9696 277.45L225.804 277.45C235.24 277.45 235.24 247.143 225.804 247.143L206.715 247.143C155.917 247.143 22.5712 247.142 13.9696 247.143C3.5902 247.143 3.5902 277.45 13.9696 277.45Z" fill="#DBBFF8"/>
<path d="M13.9696 277.45C24.3491 277.45 216.368 277.45 225.804 277.45M13.9696 277.45C3.5902 277.45 3.5902 247.143 13.9696 247.143C22.5712 247.142 155.917 247.143 206.715 247.143M13.9696 277.45L225.804 277.45M225.804 277.45C235.24 277.45 235.24 247.143 225.804 247.143M225.804 247.143L206.715 247.143M225.804 247.143C224.188 247.143 217.215 247.143 206.715 247.143" stroke="black" stroke-width="8"/>
<path d="M18.4449 186.527L114.553 186.527C118.834 186.527 118.834 164.879 114.553 164.879L105.893 164.879C82.8455 164.879 22.3474 164.879 18.4449 164.879C13.7358 164.879 13.7358 186.527 18.4449 186.527Z" fill="#DBBFF8"/>
<path d="M18.4449 186.527C23.154 186.527 110.272 186.527 114.553 186.527M18.4449 186.527C13.7358 186.527 13.7358 164.879 18.4449 164.879C22.3474 164.879 82.8455 164.879 105.893 164.879M18.4449 186.527L114.553 186.527M114.553 186.527C118.834 186.527 118.834 164.879 114.553 164.879M114.553 164.879L105.893 164.879M114.553 164.879C113.82 164.879 110.656 164.879 105.893 164.879" stroke="black" stroke-width="8"/>
<path d="M138.121 17.2196C145.182 18.2546 169.97 1.2971 176.641 3.14857C183.313 5.00003 183.111 13.8869 176.641 16.1846C170.172 18.4823 144.98 2.22297 138.121 3.51894C131.261 4.8149 131.06 16.1846 138.121 17.2196Z" stroke="#424242" stroke-width="5"/>
<path d="M157.111 10.0427V27.6315M118.577 56.8845L133.909 51.145M119.989 60.032H134.918M176.478 42.4432C167.223 42.0605 165.878 46.5668 166.996 58.9211C160.431 58.6104 158.325 60.0532 157.111 65.2161M195.733 47.4421C194.96 40.8551 192.171 33.6346 186.364 28.9276C174.259 19.1148 136.734 35.0374 136.734 35.0374C131.118 30.6516 127.158 29.8418 118.577 31.5196C120.144 34.6384 121.88 36.7002 125.436 41.1472C111.815 54.4833 111.647 62.5974 123.419 65.2161C163.31 65.2802 187.373 65.7715 192.416 62.6241C195.041 60.9864 196.573 54.587 195.733 47.4421ZM195.733 47.4421C202.797 44.3648 206.343 45.9473 204.925 38.9254C203.506 31.9036 207.79 28.207 214.205 30.5939" stroke="#424242" stroke-width="5"/>
</svg>

