<svg viewBox="0 0 698 475" fill="none" xmlns="http://www.w3.org/2000/svg">
<path d="M146.467 423.959C163.534 425.054 170 387.313 146.467 296.477C81.9829 272.271 9.21306 267.858 5.5647 296.477C1.91635 325.096 96.6237 343.444 96.6237 343.444C122.028 425.499 129.399 422.864 146.467 423.959Z" stroke="black" stroke-width="10"/>
<path d="M305.564 133.814L147.409 296.762M333.361 236.375L201.086 106.976M296.938 267.048L172.331 141.482M250.929 291.011L147.409 185.574M206.837 314.974L122.488 230.624M394.706 221.997L219.298 44.672C302.087 3.0728 347.185 -5.13582 424.42 16.875C444.734 100.981 437.06 145.744 394.706 221.997Z" stroke="black" stroke-width="10"/>
<path d="M314.398 57.1328C314.398 67.6057 322.888 76.0957 333.361 76.0957C343.834 76.0957 352.324 67.6057 352.324 57.1328C352.324 46.6599 343.834 38.1699 333.361 38.1699C322.888 38.1699 314.398 46.6599 314.398 57.1328Z" stroke="black" stroke-width="10"/>
<path d="M595.214 434.505C591.439 438.677 581.258 431.255 565.979 404.426C575.642 383.927 591.799 366.198 599.223 372.114C606.647 378.029 588.51 404.077 588.51 404.077C601.333 429.263 598.99 430.332 595.214 434.505Z" stroke="black" stroke-width="10"/>
<path d="M491.138 402.533L565.822 404.71M508.1 433.106L509.634 372.241M523.728 431.99L524.332 373.788M540.078 427.093L540.323 378.476M555.977 422.635L556.534 383.39M490.329 443.782L491.049 361.718C461.976 370.889 449.453 379.294 436.278 402.2C450.773 426.702 462.849 435.504 490.329 443.782Z" stroke="black" stroke-width="10"/>
<path d="M469.063 388.805C470.173 389.948 470.147 391.774 469.005 392.884C467.862 393.994 466.036 393.968 464.926 392.826C463.816 391.684 463.842 389.858 464.984 388.747C466.126 387.637 467.952 387.663 469.063 388.805Z" stroke="black" stroke-width="10"/>
<path d="M372.283 309.08V441.607C403.156 474.739 620.019 483.022 662.186 443.866V313.326C667.607 342.906 432.65 358.433 372.283 309.08ZM372.283 309.08C384.994 278.959 464.25 268.218 561.285 276.173M398.638 322.88C443.136 305.324 496.573 294.172 599.879 309.198M567.213 203.66L556.671 191.612" stroke="black" stroke-width="10" stroke-linecap="round"/>
<path d="M547.514 163.415C552.128 168.664 554.89 174.335 555.808 179.074C556.752 183.949 555.639 186.827 554.128 188.155C552.617 189.483 549.619 190.217 544.906 188.655C540.325 187.136 535.055 183.669 530.442 178.419C525.828 173.17 523.066 167.499 522.148 162.76C521.204 157.885 522.317 155.007 523.828 153.679C525.339 152.351 528.337 151.617 533.05 153.179C537.631 154.698 542.901 158.165 547.514 163.415Z" stroke="black" stroke-width="10"/>
<path d="M615.182 194.875C636.561 221.499 651.433 248.907 658.311 271.549C661.754 282.885 663.116 292.772 662.464 300.647C661.814 308.507 659.219 313.89 655.214 317.106C651.21 320.321 645.394 321.692 637.579 320.63C629.749 319.565 620.389 316.1 610.065 310.29C589.442 298.684 565.893 278.243 544.514 251.618C523.136 224.994 508.263 197.586 501.385 174.944C497.942 163.608 496.58 153.721 497.232 145.846C497.882 137.986 500.477 132.603 504.482 129.387C508.486 126.172 514.302 124.801 522.117 125.863C529.948 126.928 539.307 130.393 549.632 136.203C570.254 147.809 593.803 168.25 615.182 194.875Z" stroke="black" stroke-width="10"/>
</svg>
