<svg viewBox="0 0 405 415" fill="none" xmlns="http://www.w3.org/2000/svg">
<path d="M203.355 61.1323L9.52617 195.59C-19.7863 129.966 98.9003 92.61 203.355 7C302.548 90.4573 433.932 140.006 391.945 195.59L203.355 61.1323Z" fill="#6BCC69"/>
<path d="M47.0696 171.143V409.5H129.14M355.275 171.143V409.5H283.679M129.14 409.5C136.436 319.509 123.031 265.438 203.355 265.438C283.679 265.438 281.895 337.509 283.679 409.5M129.14 409.5C150.094 409.5 283.679 409.5 283.679 409.5M121.282 182.493H165.81M129.14 219.164L165.81 201.702M240.897 182.493H283.679M233.912 201.702L273.202 219.164M203.355 61.1323L9.52617 195.59C-19.7863 129.966 98.9003 92.61 203.355 7C302.548 90.4573 433.932 140.006 391.945 195.59L203.355 61.1323ZM165.81 118.757L180.653 154.554H226.054L240.897 118.757C272.266 191.918 273.1 222.073 203.355 229.641C130.125 220.925 134.377 189.281 165.81 118.757Z" stroke="black" stroke-width="10" stroke-linecap="round"/>
<circle cx="251.215" cy="338.779" r="10.4772" fill="black"/>
</svg>
