<svg viewBox="0 0 554 404" fill="none" xmlns="http://www.w3.org/2000/svg">
<path d="M360.293 244.277L385.739 251.001M427.378 262.004L385.739 251.001M360.293 281.273L408.1 305.165M346.413 305.165L385.739 336.766M151.326 336.766L189.881 305.165M125.88 305.165L172.145 281.273M112 262.004L172.145 244.277M265.448 305.165V332.912M265.448 332.912C170.492 325.341 145.472 303.839 144.386 238.882M265.448 332.912C279.775 331.629 292.585 330.152 304.003 328.255M226.122 329.058C226.122 329.058 265.448 359.117 233.833 392.258C202.218 425.4 96.724 330.309 144.386 238.882M144.386 238.882C145.839 204.99 156.697 176.093 189.881 110.94C193.761 114.819 197.319 118.375 200.676 121.73M385.739 251.001C389.719 195.909 368.91 163.876 338.702 107.086L288.581 163.35H242.315C225.719 146.762 215.032 136.08 200.676 121.73M385.739 251.001C380.433 301.29 357.498 319.37 304.003 328.255M193.736 238.882C219.697 248.561 231.569 247.486 246.171 229.633M283.954 229.633C297.888 245.253 308.113 249.601 335.618 240.424M399.618 144.852C391.779 190.104 398.184 208.154 445.884 215.76C428.041 255.678 422.695 275.504 428.472 289.751M507.572 229.633C476.703 279.771 459.25 309.381 434.318 299C431.775 296.098 429.82 293.076 428.472 289.751M507.572 229.633C503.629 285.222 494.463 305.165 530.705 305.165C566.946 305.165 557.456 101.938 427.378 59.3008C337.372 26.8498 287.736 40.472 200.676 121.73M507.572 229.633C505.995 171.535 496.138 157.274 475.957 137.145M304.003 328.255C294.75 336.766 269.303 365.283 294.75 392.258C320.196 419.234 408.1 356.034 428.472 289.751" stroke="black" stroke-width="10"/>
<path d="M248.361 283.5L265.5 306.783L282.639 283.5H248.361Z" fill="#FC85D4" stroke="black" stroke-width="5"/>
<path d="M148.988 103.167V107H124.916V103.167H148.988ZM148.207 74.8711L126.039 107H123.134V103.484L145.277 71.4531H148.207V74.8711ZM146.205 71.4531V75.3105H123.451V71.4531H146.205Z" fill="black"/>
<path d="M66.3906 33.9336V37H47.1328V33.9336H66.3906ZM65.7656 11.2969L48.0312 37H45.707V34.1875L63.4219 8.5625H65.7656V11.2969ZM64.1641 8.5625V11.6484H45.9609V8.5625H64.1641Z" fill="black"/>
<path d="M106.689 68.5503V72H85.0244V68.5503H106.689ZM105.986 43.084L86.0352 72H83.4204V68.8359L103.35 40.0078H105.986V43.084ZM104.185 40.0078V43.4795H83.7061V40.0078H104.185Z" fill="black"/>
</svg>
