<svg viewBox="0 0 1366 339" fill="none" xmlns="http://www.w3.org/2000/svg">
<path d="M314.176 50.4844H335.177L388.746 183.79L442.203 50.4844H463.316L396.832 214H380.435L314.176 50.4844ZM307.325 50.4844H325.855L328.888 150.211V214H307.325V50.4844ZM451.524 50.4844H470.055V214H448.492V150.211L451.524 50.4844ZM555.406 216.246C546.946 216.246 539.272 214.824 532.384 211.979C525.571 209.059 519.693 204.978 514.752 199.737C509.885 194.496 506.142 188.282 503.521 181.095C500.901 173.907 499.591 166.046 499.591 157.511V152.794C499.591 142.911 501.051 134.114 503.971 126.402C506.891 118.616 510.859 112.027 515.875 106.637C520.891 101.246 526.581 97.1657 532.945 94.3955C539.309 91.6253 545.898 90.2402 552.711 90.2402C561.396 90.2402 568.883 91.7376 575.172 94.7324C581.536 97.7272 586.739 101.92 590.782 107.311C594.825 112.626 597.82 118.915 599.767 126.178C601.713 133.365 602.686 141.227 602.686 149.762V159.083H511.944V142.125H581.91V140.553C581.611 135.162 580.488 129.921 578.541 124.83C576.669 119.739 573.674 115.546 569.557 112.252C565.439 108.958 559.823 107.311 552.711 107.311C547.994 107.311 543.652 108.321 539.684 110.343C535.715 112.289 532.309 115.209 529.464 119.103C526.619 122.996 524.41 127.75 522.838 133.365C521.266 138.98 520.479 145.457 520.479 152.794V157.511C520.479 163.276 521.266 168.704 522.838 173.795C524.485 178.811 526.843 183.229 529.913 187.047C533.058 190.865 536.838 193.86 541.256 196.031C545.748 198.202 550.839 199.288 556.529 199.288C563.866 199.288 570.081 197.791 575.172 194.796C580.263 191.801 584.718 187.796 588.536 182.779L601.114 192.774C598.494 196.743 595.162 200.523 591.119 204.117C587.076 207.711 582.097 210.631 576.183 212.877C570.343 215.123 563.417 216.246 555.406 216.246ZM828.868 192.438L860.089 92.4863H873.79L871.095 112.364L839.312 214H825.948L828.868 192.438ZM807.867 92.4863L834.483 193.561L836.392 214H822.354L787.091 92.4863H807.867ZM903.663 192.774L929.044 92.4863H949.708L914.444 214H900.518L903.663 192.774ZM876.822 92.4863L907.369 190.753L910.85 214H897.599L864.918 112.14L862.223 92.4863H876.822ZM991.822 118.429V214H971.046V92.4863H990.699L991.822 118.429ZM986.881 148.639L978.233 148.302C978.308 139.991 979.543 132.317 981.939 125.279C984.335 118.167 987.704 111.99 992.047 106.749C996.389 101.508 1001.56 97.4652 1007.54 94.6201C1013.61 91.7002 1020.31 90.2402 1027.65 90.2402C1033.64 90.2402 1039.03 91.0638 1043.82 92.7109C1048.61 94.2832 1052.69 96.8288 1056.06 100.348C1059.5 103.867 1062.12 108.434 1063.92 114.049C1065.72 119.589 1066.62 126.365 1066.62 134.376V214H1045.73V134.151C1045.73 127.787 1044.79 122.696 1042.92 118.878C1041.05 114.985 1038.32 112.177 1034.72 110.455C1031.13 108.658 1026.71 107.76 1021.47 107.76C1016.3 107.76 1011.59 108.845 1007.32 111.017C1003.13 113.188 999.496 116.183 996.427 120.001C993.432 123.819 991.073 128.199 989.351 133.141C987.704 138.007 986.881 143.173 986.881 148.639Z" fill="black"/>
<g filter="url(#filter0_d_45_174)">
<path d="M1093.41 125.242C1092.65 125.569 1092.29 126.452 1092.62 127.213C1092.95 127.974 1093.83 128.325 1094.59 127.997L1093.41 125.242ZM1359.88 128.056C1360.67 128.294 1361.51 127.844 1361.75 127.051C1361.98 126.257 1361.53 125.421 1360.74 125.183L1359.88 128.056ZM1097.16 153.96C1096.33 153.988 1095.68 154.682 1095.71 155.51C1095.74 156.337 1096.43 156.986 1097.26 156.958L1097.16 153.96ZM1356.26 237.025C1356.94 237.492 1357.87 237.316 1358.34 236.632C1358.81 235.948 1358.63 235.015 1357.95 234.547L1356.26 237.025ZM1097.56 183.472C1096.75 183.28 1095.94 183.778 1095.75 184.584C1095.56 185.39 1096.06 186.199 1096.86 186.391L1097.56 183.472ZM1303.08 329.815C1303.66 330.411 1304.61 330.427 1305.2 329.851C1305.8 329.275 1305.81 328.326 1305.24 327.73L1303.08 329.815ZM1094.59 127.997C1137.72 109.418 1173.83 100.39 1214.2 100.501C1254.61 100.612 1299.39 109.88 1359.88 128.056L1360.74 125.183C1300.17 106.982 1255.06 97.6135 1214.21 97.501C1173.32 97.3884 1136.8 106.549 1093.41 125.242L1094.59 127.997ZM1097.26 156.958C1155.11 155.012 1197.55 159.832 1236.64 172.7C1275.75 185.574 1311.61 206.534 1356.26 237.025L1357.95 234.547C1313.23 204.011 1277.1 182.859 1237.58 169.851C1198.05 156.837 1155.23 152.006 1097.16 153.96L1097.26 156.958ZM1096.86 186.391C1176.38 205.323 1221.63 245.565 1303.08 329.815L1305.24 327.73C1223.78 243.471 1178 202.624 1097.56 183.472L1096.86 186.391Z" fill="black"/>
</g>
<g filter="url(#filter1_d_45_174)">
<path d="M272.31 126.619C185.79 89.3473 127.062 90.2426 5.99994 126.619M269.101 155.459C153.182 151.56 98.5735 174.76 9.20849 235.786M269.101 184.931C189.123 203.973 143.605 244.518 62.1496 328.773" stroke="black" stroke-width="3" stroke-linecap="round"/>
</g>
<path d="M764.5 122.387C764.5 130.22 762.03 137.454 757.841 143.347L701.004 209.835L640.213 148.455L636.194 143.397C631.984 137.495 629.5 130.242 629.5 122.387C629.5 102.524 645.383 86.5 664.881 86.5C677 86.5 687.712 92.6792 694.099 102.142L697 106.44L699.901 102.142C706.288 92.6792 717 86.5 729.119 86.5C748.617 86.5 764.5 102.524 764.5 122.387Z" stroke="#FC85D4" stroke-width="7"/>
<defs>
<filter id="filter0_d_45_174" x="1088.5" y="97.5" width="277.31" height="240.773" filterUnits="userSpaceOnUse" color-interpolation-filters="sRGB">
<feFlood flood-opacity="0" result="BackgroundImageFix"/>
<feColorMatrix in="SourceAlpha" type="matrix" values="0 0 0 0 0 0 0 0 0 0 0 0 0 0 0 0 0 0 127 0" result="hardAlpha"/>
<feOffset dy="4"/>
<feGaussianBlur stdDeviation="2"/>
<feComposite in2="hardAlpha" operator="out"/>
<feColorMatrix type="matrix" values="0 0 0 0 0 0 0 0 0 0 0 0 0 0 0 0 0 0 0.25 0"/>
<feBlend mode="normal" in2="BackgroundImageFix" result="effect1_dropShadow_45_174"/>
<feBlend mode="normal" in="SourceGraphic" in2="effect1_dropShadow_45_174" result="shape"/>
</filter>
<filter id="filter1_d_45_174" x="0.499512" y="97.5" width="277.31" height="240.773" filterUnits="userSpaceOnUse" color-interpolation-filters="sRGB">
<feFlood flood-opacity="0" result="BackgroundImageFix"/>
<feColorMatrix in="SourceAlpha" type="matrix" values="0 0 0 0 0 0 0 0 0 0 0 0 0 0 0 0 0 0 127 0" result="hardAlpha"/>
<feOffset dy="4"/>
<feGaussianBlur stdDeviation="2"/>
<feComposite in2="hardAlpha" operator="out"/>
<feColorMatrix type="matrix" values="0 0 0 0 0 0 0 0 0 0 0 0 0 0 0 0 0 0 0.25 0"/>
<feBlend mode="normal" in2="BackgroundImageFix" result="effect1_dropShadow_45_174"/>
<feBlend mode="normal" in="SourceGraphic" in2="effect1_dropShadow_45_174" result="shape"/>
</filter>
</defs>
</svg>
