<svg width="1875" height="94" viewBox="0 0 1875 94" fill="none" xmlns="http://www.w3.org/2000/svg">
<ellipse cx="207.994" cy="24.4774" rx="3.12255" ry="3.70802" transform="rotate(-42.7009 207.994 24.4774)" fill="#9F9E99"/>
<ellipse cx="237.867" cy="24.4406" rx="3.12255" ry="3.70802" transform="rotate(32.5674 237.867 24.4406)" fill="#9F9E99"/>
<ellipse cx="229.173" cy="15.9399" rx="3.12255" ry="3.70802" transform="rotate(18.3292 229.173 15.9399)" fill="#9F9E99"/>
<ellipse cx="216.869" cy="14.2298" rx="3.12255" ry="3.70802" transform="rotate(-13.9917 216.869 14.2298)" fill="#9F9E99"/>
<path d="M221.904 25.1165C213.707 25.702 209.995 40.1339 218.781 37.997C221.986 40.2982 223.478 40.0661 225.807 37.997C236.9 39.02 230.1 24.531 221.904 25.1165Z" fill="#9F9E99" stroke="#9F9E99" stroke-width="3" stroke-linecap="round"/>
<path d="M205.917 92.3476C205.917 92.3476 208.454 38.874 208.454 34.7757C208.454 30.6773 202.404 28.9209 202.404 24.2371C202.404 18.5775 207.297 17.132 211.967 19.5532C210.908 12.4423 211.381 9.20982 214.114 7.8437C219.188 6.47759 221.949 9.7102 223.481 16.2355C225.01 10.3113 228.165 7.8437 232.654 9.20982C235.581 10.7711 236.299 15.2879 232.654 19.5532C236.312 17.9442 240.38 17.4065 242.022 19.5532C244.559 22.871 241.493 28.5401 236.752 34.7757L239.68 92.3476" stroke="black" stroke-width="2" stroke-linecap="round"/>
<path d="M22.0608 36.0454C13.2742 38.1824 16.9866 23.7505 25.1833 23.1649C33.38 22.5794 40.1792 37.0684 29.0865 36.0454C26.7577 38.1145 25.266 38.3466 22.0608 36.0454Z" fill="#E09B33"/>
<path d="M22.0608 36.0454L22.9356 34.8269L22.3758 34.4251L21.7063 34.5879L22.0608 36.0454ZM29.0865 36.0454L29.2242 34.5518L28.5765 34.492L28.0902 34.9241L29.0865 36.0454ZM21.7063 34.5879C19.8608 35.0367 19.1859 34.5309 18.9091 34.1439C18.5182 33.5975 18.3299 32.5028 18.7084 30.9903C19.47 27.9472 22.0696 24.8912 25.2902 24.6611L25.0764 21.6687C20.1003 22.0242 16.7454 26.4769 15.7982 30.262C15.3223 32.1634 15.3411 34.3127 16.4692 35.8895C17.7114 37.6258 19.8675 38.1226 22.4152 37.5029L21.7063 34.5879ZM25.2902 24.6611C26.8751 24.5479 28.4804 25.1597 29.889 26.2575C31.3 27.3571 32.4039 28.8641 32.9714 30.3155C33.5587 31.8173 33.4652 32.9366 33.0566 33.5566C32.7001 34.0974 31.739 34.7837 29.2242 34.5518L28.9487 37.5391C31.9803 37.8187 34.329 37.0774 35.5614 35.2075C36.7416 33.4169 36.516 31.1424 35.7654 29.223C34.9952 27.2532 33.5556 25.3116 31.7331 23.8912C29.9082 22.469 27.5898 21.4892 25.0764 21.6687L25.2902 24.6611ZM28.0902 34.9241C26.9798 35.9107 26.3684 36.171 25.8614 36.1848C25.3158 36.1997 24.4869 35.9407 22.9356 34.8269L21.1859 37.2639C22.8398 38.4513 24.3594 39.2269 25.9431 39.1837C27.5656 39.1395 28.8644 38.2492 30.0828 37.1668L28.0902 34.9241Z" fill="#E09B33"/>
<path d="M5.87903 47.9328V51.836C9.77193 54.0868 12.6319 54.1816 18.1741 53.5924C12.8748 52.3436 10.1976 51.076 5.87903 47.9328Z" fill="#E09B33" stroke="#E09B33" stroke-linecap="round"/>
<path d="M49.0092 77.4019V81.2317C41.7177 83.4402 36.361 83.5333 25.9804 82.9552C35.9059 81.7297 40.9204 80.486 49.0092 77.4019Z" fill="#E09B33" stroke="#E09B33" stroke-linecap="round"/>
<path d="M48.6188 62.5698V66.9103C43.799 69.4132 40.2581 69.5187 33.3964 68.8635C39.9573 67.4747 43.272 66.0651 48.6188 62.5698Z" fill="#E09B33" stroke="#E09B33" stroke-linecap="round"/>
<path d="M43.9351 50.8602V55.2007C38.2502 57.7037 34.0738 57.8092 25.9804 57.154C33.719 55.7651 37.6286 54.3556 43.9351 50.8602Z" fill="#E09B33" stroke="#E09B33" stroke-linecap="round"/>
<path d="M1 72.718V77.0586C6.4377 79.5615 10.4326 79.667 18.174 79.0118C10.7719 77.623 7.03227 76.2134 1 72.718Z" fill="#E09B33" stroke="#E09B33" stroke-linecap="round"/>
<path d="M5.68384 59.0569V64.674C12.1102 67.9131 16.8314 68.0497 25.9804 67.2018C17.2324 65.4045 12.8129 63.5803 5.68384 59.0569Z" fill="#E09B33" stroke="#E09B33" stroke-linecap="round"/>
<path d="M9.19675 91.9573C9.19675 91.9573 11.7338 38.4837 11.7338 34.3853C11.7338 30.287 5.68384 28.5306 5.68384 23.8467C5.68384 18.1871 10.5772 16.7417 15.2467 19.1629C14.1874 12.052 14.6612 8.8195 17.3934 7.45338C22.4675 6.08727 25.2287 9.31988 26.7611 15.8452C28.2895 9.92094 31.4448 7.45338 35.9335 8.8195C38.8609 10.3808 39.5782 14.8975 35.9335 19.1629C39.5919 17.5539 43.6596 17.0162 45.3012 19.1629C47.8382 22.4806 44.7727 28.1498 40.0319 34.3853L42.9593 91.9573" stroke="black" stroke-width="2" stroke-linecap="round"/>
<ellipse cx="11.2739" cy="24.0871" rx="3.12255" ry="3.70802" transform="rotate(-42.7009 11.2739 24.0871)" fill="#E09B33"/>
<ellipse cx="41.1465" cy="24.0503" rx="3.12255" ry="3.70802" transform="rotate(32.5674 41.1465 24.0503)" fill="#E09B33"/>
<ellipse cx="32.4525" cy="15.5496" rx="3.12255" ry="3.70802" transform="rotate(18.3292 32.4525 15.5496)" fill="#E09B33"/>
<ellipse cx="20.1488" cy="13.8395" rx="3.12255" ry="3.70802" transform="rotate(-13.9917 20.1488 13.8395)" fill="#E09B33"/>
<path d="M86.8536 39.5583C78.067 41.6952 81.7795 27.2633 89.9761 26.6778C98.1728 26.0922 104.972 40.5813 93.8793 39.5583C91.5506 41.6273 90.0588 41.8594 86.8536 39.5583Z" fill="#EBAFB1"/>
<path d="M86.8536 39.5583L87.7284 38.3398L87.1687 37.9379L86.4991 38.1008L86.8536 39.5583ZM93.8793 39.5583L94.0171 38.0646L93.3693 38.0049L92.883 38.4369L93.8793 39.5583ZM86.4991 38.1008C84.6536 38.5496 83.9788 38.0437 83.702 37.6568C83.311 37.1103 83.1228 36.0157 83.5013 34.5031C84.2628 31.4601 86.8624 28.404 90.083 28.174L89.8693 25.1816C84.8932 25.5371 81.5382 29.9898 80.591 33.7748C80.1152 35.6763 80.134 37.8255 81.2621 39.4023C82.5042 41.1386 84.6603 41.6354 87.2081 41.0158L86.4991 38.1008ZM90.083 28.174C91.668 28.0607 93.2732 28.6725 94.6818 29.7703C96.0929 30.87 97.1967 32.3769 97.7643 33.8283C98.3515 35.3301 98.2581 36.4494 97.8494 37.0695C97.493 37.6103 96.5318 38.2965 94.0171 38.0646L93.7416 41.0519C96.7732 41.3315 99.1219 40.5903 100.354 38.7204C101.534 36.9297 101.309 34.6552 100.558 32.7358C99.788 30.766 98.3485 28.8244 96.526 27.4041C94.7011 25.9818 92.3827 25.002 89.8693 25.1816L90.083 28.174ZM92.883 38.4369C91.7726 39.4235 91.1612 39.6839 90.6543 39.6977C90.1086 39.7125 89.2798 39.4536 87.7284 38.3398L85.9788 40.7768C87.6327 41.9642 89.1523 42.7397 90.736 42.6966C92.3584 42.6523 93.6573 41.7621 94.8756 40.6796L92.883 38.4369Z" fill="#EBAFB1"/>
<path d="M73.9896 91.9573C73.9896 91.9573 76.5267 38.4837 76.5267 34.3853C76.5267 30.287 70.4767 28.5306 70.4767 23.8467C70.4767 18.1871 75.37 16.7417 80.0395 19.1629C78.9803 12.052 79.454 8.8195 82.1862 7.45338C87.2604 6.08727 90.0216 9.31988 91.5539 15.8452C93.0824 9.92094 96.2377 7.45338 100.726 8.8195C103.654 10.3808 104.371 14.8975 100.726 19.1629C104.385 17.5539 108.452 17.0162 110.094 19.1629C112.631 22.4806 109.566 28.1498 104.825 34.3853L107.752 91.9573" stroke="black" stroke-width="2" stroke-linecap="round"/>
<ellipse cx="76.0668" cy="24.0871" rx="3.12255" ry="3.70802" transform="rotate(-42.7009 76.0668 24.0871)" fill="#EBAFB1"/>
<ellipse cx="105.939" cy="24.0503" rx="3.12255" ry="3.70802" transform="rotate(32.5674 105.939 24.0503)" fill="#EBAFB1"/>
<ellipse cx="97.2453" cy="15.5496" rx="3.12255" ry="3.70802" transform="rotate(18.3292 97.2453 15.5496)" fill="#EBAFB1"/>
<ellipse cx="84.9417" cy="13.8395" rx="3.12255" ry="3.70802" transform="rotate(-13.9917 84.9417 13.8395)" fill="#EBAFB1"/>
<path d="M129.415 14.9509C132.163 43.1705 143.253 50.4199 177.814 50.0796C179.063 56.5251 180.306 58.5656 183.279 60.0327L184.84 51.4457L193.037 43.4442C188.301 42.4012 185.532 42.8462 180.351 45.5909C169.099 18.5021 158.349 11.0893 129.415 14.9509Z" fill="#E09B33"/>
<path d="M129.415 14.9509L129.349 14.4553L128.87 14.5192L128.917 14.9994L129.415 14.9509ZM177.814 50.0796L178.305 49.9845L178.226 49.5755L177.809 49.5796L177.814 50.0796ZM183.279 60.0327L183.057 60.481L183.652 60.7745L183.771 60.1221L183.279 60.0327ZM184.84 51.4457L184.491 51.0879L184.376 51.1993L184.348 51.3562L184.84 51.4457ZM193.037 43.4442L193.386 43.8019L194.048 43.155L193.144 42.9559L193.037 43.4442ZM180.351 45.5909L179.889 45.7827L180.1 46.2898L180.585 46.0327L180.351 45.5909ZM128.917 14.9994C130.295 29.1508 133.777 38.2059 141.394 43.6325C148.974 49.0322 160.538 50.7497 177.819 50.5795L177.809 49.5796C160.529 49.7497 149.267 48.0127 141.974 42.818C134.72 37.65 131.282 28.9706 129.912 14.9025L128.917 14.9994ZM177.323 50.1747C177.949 53.405 178.584 55.5938 179.464 57.1671C180.36 58.7705 181.498 59.7115 183.057 60.481L183.5 59.5843C182.087 58.8868 181.117 58.0741 180.336 56.679C179.539 55.2539 178.928 53.1997 178.305 49.9845L177.323 50.1747ZM183.771 60.1221L185.332 51.5351L184.348 51.3562L182.787 59.9432L183.771 60.1221ZM185.189 51.8035L193.386 43.8019L192.687 43.0864L184.491 51.0879L185.189 51.8035ZM193.144 42.9559C190.74 42.4264 188.795 42.2658 186.778 42.6041C184.769 42.941 182.726 43.767 180.117 45.1491L180.585 46.0327C183.157 44.6701 185.089 43.9012 186.944 43.5903C188.79 43.2806 190.597 43.419 192.929 43.9325L193.144 42.9559ZM180.813 45.3991C175.18 31.8371 169.629 23.083 161.776 18.239C153.915 13.3896 143.849 12.52 129.349 14.4553L129.481 15.4465C143.914 13.5202 153.691 14.4262 161.251 19.09C168.82 23.7591 174.271 32.2558 179.889 45.7827L180.813 45.3991Z" fill="#E09B33"/>
<path d="M138.782 91.9573C138.782 91.9573 141.319 38.4837 141.319 34.3853C141.319 30.287 135.269 28.5306 135.269 23.8467C135.269 18.1871 140.163 16.7417 144.832 19.1629C143.773 12.052 144.247 8.8195 146.979 7.45338C152.053 6.08727 154.814 9.31988 156.347 15.8452C157.875 9.92094 161.03 7.45338 165.519 8.8195C168.446 10.3808 169.164 14.8975 165.519 19.1629C169.178 17.5539 173.245 17.0162 174.887 19.1629C177.424 22.4806 174.358 28.1498 169.617 34.3853L172.545 91.9573" stroke="black" stroke-width="2" stroke-linecap="round"/>
<path d="M289.64 49.2989L287.689 47.9328L296.471 43.6393C303.136 46.2041 305.695 46.0556 307.79 42.4684C303.979 42.5852 301.923 42.6102 300.569 41.4926C312.032 33.6629 316.411 29.495 315.987 22.9525L315.857 22.9301C313.091 22.4544 309.931 21.911 305.448 23.7331C298.636 19.4147 297.175 20.585 297.447 27.0508C290.21 23.7435 268.269 25.2178 267.002 36.4184C265.8 41.0846 267.695 45.4544 271.295 48.071C273.854 49.9305 277.273 50.9044 281.053 50.4699C284.189 50.9815 286.693 51.9418 289.64 49.2989Z" fill="#FF7511"/>
<path d="M315.987 22.9525C316.411 29.495 312.032 33.6629 300.569 41.4926C301.923 42.6102 303.979 42.5852 307.79 42.4684C305.695 46.0556 303.136 46.2041 296.471 43.6393L287.689 47.9328L289.64 49.2989C286.693 51.9418 284.189 50.9815 281.053 50.4699C277.273 50.9044 273.854 49.9305 271.295 48.071M315.987 22.9525L315.857 22.9301M315.987 22.9525C315.944 22.945 315.9 22.9376 315.857 22.9301M271.295 48.071C267.695 45.4544 265.8 41.0846 267.002 36.4184C268.269 25.2178 290.21 23.7435 297.447 27.0508C297.175 20.585 298.636 19.4147 305.448 23.7331C309.931 21.911 313.091 22.4544 315.857 22.9301M271.295 48.071C270.124 64.5214 255.612 58.6847 259.391 50.4699C263.169 42.2551 265.245 33.1007 257.829 36.4184" stroke="#FF7511" stroke-linecap="round"/>
<path d="M269.539 91.9572C269.539 91.9572 272.076 38.4837 272.076 34.3853C272.076 30.287 266.026 28.5305 266.026 23.8467C266.026 18.1871 270.919 16.7417 275.589 19.1629C274.53 12.052 275.003 8.81947 277.736 7.45335C282.81 6.08724 285.571 9.31985 287.103 15.8452C288.632 9.92091 291.787 7.45335 296.276 8.81947C299.203 10.3807 299.921 14.8975 296.276 19.1629C299.934 17.5538 304.002 17.0162 305.643 19.1629C308.18 22.4806 305.115 28.1498 300.374 34.3853L303.302 91.9572" stroke="black" stroke-width="2" stroke-linecap="round"/>
<path d="M277.595 1.00388L280.336 6.17785L276.699 6.7901L277.595 1.00388Z" fill="black"/>
<path d="M262.321 15.6102L267.545 18.2562L264.926 20.854L262.321 15.6102Z" fill="black"/>
<path d="M299.619 2.9336L298.747 8.7234L295.458 7.05301L299.619 2.9336Z" fill="black"/>
<path d="M310.795 15.526L308.099 20.7234L305.526 18.0803L310.795 15.526Z" fill="black"/>
<path d="M146.595 1.00388L149.336 6.17785L145.699 6.7901L146.595 1.00388Z" fill="black"/>
<path d="M130.933 16.0639L136.513 17.8358L134.347 20.8206L130.933 16.0639Z" fill="black"/>
<path d="M168.619 2.9336L167.747 8.7234L164.458 7.05301L168.619 2.9336Z" fill="black"/>
<path d="M179.795 15.526L177.099 20.7234L174.526 18.0803L179.795 15.526Z" fill="black"/>
<ellipse cx="533.994" cy="24.4774" rx="3.12255" ry="3.70802" transform="rotate(-42.7009 533.994 24.4774)" fill="#9F9E99"/>
<ellipse cx="563.867" cy="24.4406" rx="3.12255" ry="3.70802" transform="rotate(32.5674 563.867 24.4406)" fill="#9F9E99"/>
<ellipse cx="555.173" cy="15.9399" rx="3.12255" ry="3.70802" transform="rotate(18.3292 555.173 15.9399)" fill="#9F9E99"/>
<ellipse cx="542.869" cy="14.2298" rx="3.12255" ry="3.70802" transform="rotate(-13.9917 542.869 14.2298)" fill="#9F9E99"/>
<path d="M547.904 25.1165C539.707 25.702 535.995 40.1339 544.781 37.997C547.986 40.2982 549.478 40.0661 551.807 37.997C562.9 39.02 556.1 24.531 547.904 25.1165Z" fill="#9F9E99" stroke="#9F9E99" stroke-width="3" stroke-linecap="round"/>
<path d="M531.917 92.3476C531.917 92.3476 534.454 38.874 534.454 34.7757C534.454 30.6773 528.404 28.9209 528.404 24.2371C528.404 18.5775 533.297 17.132 537.967 19.5532C536.908 12.4423 537.381 9.20982 540.114 7.8437C545.188 6.47759 547.949 9.7102 549.481 16.2355C551.01 10.3113 554.165 7.8437 558.654 9.20982C561.581 10.7711 562.299 15.2879 558.654 19.5532C562.312 17.9442 566.38 17.4065 568.022 19.5532C570.559 22.871 567.493 28.5401 562.752 34.7757L565.68 92.3476" stroke="black" stroke-width="2" stroke-linecap="round"/>
<path d="M348.061 36.0454C339.274 38.1824 342.987 23.7505 351.183 23.1649C359.38 22.5794 366.179 37.0684 355.086 36.0454C352.758 38.1145 351.266 38.3466 348.061 36.0454Z" fill="#E09B33"/>
<path d="M348.061 36.0454L348.936 34.8269L348.376 34.4251L347.706 34.5879L348.061 36.0454ZM355.086 36.0454L355.224 34.5518L354.576 34.492L354.09 34.9241L355.086 36.0454ZM347.706 34.5879C345.861 35.0367 345.186 34.5309 344.909 34.1439C344.518 33.5975 344.33 32.5028 344.708 30.9903C345.47 27.9472 348.07 24.8912 351.29 24.6611L351.076 21.6687C346.1 22.0242 342.745 26.4769 341.798 30.262C341.322 32.1634 341.341 34.3127 342.469 35.8895C343.711 37.6258 345.867 38.1226 348.415 37.5029L347.706 34.5879ZM351.29 24.6611C352.875 24.5479 354.48 25.1597 355.889 26.2575C357.3 27.3571 358.404 28.8641 358.971 30.3155C359.559 31.8173 359.465 32.9366 359.057 33.5566C358.7 34.0974 357.739 34.7837 355.224 34.5518L354.949 37.5391C357.98 37.8187 360.329 37.0774 361.561 35.2075C362.742 33.4169 362.516 31.1424 361.765 29.223C360.995 27.2532 359.556 25.3116 357.733 23.8912C355.908 22.469 353.59 21.4892 351.076 21.6687L351.29 24.6611ZM354.09 34.9241C352.98 35.9107 352.368 36.171 351.861 36.1848C351.316 36.1997 350.487 35.9407 348.936 34.8269L347.186 37.2639C348.84 38.4513 350.359 39.2269 351.943 39.1837C353.566 39.1395 354.864 38.2492 356.083 37.1668L354.09 34.9241Z" fill="#E09B33"/>
<path d="M331.879 47.9328V51.836C335.772 54.0868 338.632 54.1816 344.174 53.5924C338.875 52.3436 336.198 51.076 331.879 47.9328Z" fill="#E09B33" stroke="#E09B33" stroke-linecap="round"/>
<path d="M375.009 77.4019V81.2317C367.718 83.4402 362.361 83.5333 351.98 82.9552C361.906 81.7297 366.92 80.486 375.009 77.4019Z" fill="#E09B33" stroke="#E09B33" stroke-linecap="round"/>
<path d="M374.619 62.5698V66.9103C369.799 69.4132 366.258 69.5187 359.396 68.8635C365.957 67.4747 369.272 66.0651 374.619 62.5698Z" fill="#E09B33" stroke="#E09B33" stroke-linecap="round"/>
<path d="M369.935 50.8602V55.2007C364.25 57.7037 360.074 57.8092 351.98 57.154C359.719 55.7651 363.629 54.3556 369.935 50.8602Z" fill="#E09B33" stroke="#E09B33" stroke-linecap="round"/>
<path d="M327 72.718V77.0586C332.438 79.5615 336.433 79.667 344.174 79.0118C336.772 77.623 333.032 76.2134 327 72.718Z" fill="#E09B33" stroke="#E09B33" stroke-linecap="round"/>
<path d="M331.684 59.0569V64.674C338.11 67.9131 342.831 68.0497 351.98 67.2018C343.232 65.4045 338.813 63.5803 331.684 59.0569Z" fill="#E09B33" stroke="#E09B33" stroke-linecap="round"/>
<path d="M335.197 91.9573C335.197 91.9573 337.734 38.4837 337.734 34.3853C337.734 30.287 331.684 28.5306 331.684 23.8467C331.684 18.1871 336.577 16.7417 341.247 19.1629C340.187 12.052 340.661 8.8195 343.393 7.45338C348.468 6.08727 351.229 9.31988 352.761 15.8452C354.29 9.92094 357.445 7.45338 361.934 8.8195C364.861 10.3808 365.578 14.8975 361.934 19.1629C365.592 17.5539 369.66 17.0162 371.301 19.1629C373.838 22.4806 370.773 28.1498 366.032 34.3853L368.959 91.9573" stroke="black" stroke-width="2" stroke-linecap="round"/>
<ellipse cx="337.274" cy="24.0871" rx="3.12255" ry="3.70802" transform="rotate(-42.7009 337.274 24.0871)" fill="#E09B33"/>
<ellipse cx="367.147" cy="24.0503" rx="3.12255" ry="3.70802" transform="rotate(32.5674 367.147 24.0503)" fill="#E09B33"/>
<ellipse cx="358.452" cy="15.5496" rx="3.12255" ry="3.70802" transform="rotate(18.3292 358.452 15.5496)" fill="#E09B33"/>
<ellipse cx="346.149" cy="13.8395" rx="3.12255" ry="3.70802" transform="rotate(-13.9917 346.149 13.8395)" fill="#E09B33"/>
<path d="M412.854 39.5583C404.067 41.6952 407.779 27.2633 415.976 26.6778C424.173 26.0922 430.972 40.5813 419.879 39.5583C417.551 41.6273 416.059 41.8594 412.854 39.5583Z" fill="#EBAFB1"/>
<path d="M412.854 39.5583L413.728 38.3398L413.169 37.9379L412.499 38.1008L412.854 39.5583ZM419.879 39.5583L420.017 38.0646L419.369 38.0049L418.883 38.4369L419.879 39.5583ZM412.499 38.1008C410.654 38.5496 409.979 38.0437 409.702 37.6568C409.311 37.1103 409.123 36.0157 409.501 34.5031C410.263 31.4601 412.862 28.404 416.083 28.174L415.869 25.1816C410.893 25.5371 407.538 29.9898 406.591 33.7748C406.115 35.6763 406.134 37.8255 407.262 39.4023C408.504 41.1386 410.66 41.6354 413.208 41.0158L412.499 38.1008ZM416.083 28.174C417.668 28.0607 419.273 28.6725 420.682 29.7703C422.093 30.87 423.197 32.3769 423.764 33.8283C424.352 35.3301 424.258 36.4494 423.849 37.0695C423.493 37.6103 422.532 38.2965 420.017 38.0646L419.742 41.0519C422.773 41.3315 425.122 40.5903 426.354 38.7204C427.534 36.9297 427.309 34.6552 426.558 32.7358C425.788 30.766 424.348 28.8244 422.526 27.4041C420.701 25.9818 418.383 25.002 415.869 25.1816L416.083 28.174ZM418.883 38.4369C417.773 39.4235 417.161 39.6839 416.654 39.6977C416.109 39.7125 415.28 39.4536 413.728 38.3398L411.979 40.7768C413.633 41.9642 415.152 42.7397 416.736 42.6966C418.358 42.6523 419.657 41.7621 420.876 40.6796L418.883 38.4369Z" fill="#EBAFB1"/>
<path d="M399.99 91.9573C399.99 91.9573 402.527 38.4837 402.527 34.3853C402.527 30.287 396.477 28.5306 396.477 23.8467C396.477 18.1871 401.37 16.7417 406.04 19.1629C404.98 12.052 405.454 8.8195 408.186 7.45338C413.26 6.08727 416.022 9.31988 417.554 15.8452C419.082 9.92094 422.238 7.45338 426.726 8.8195C429.654 10.3808 430.371 14.8975 426.726 19.1629C430.385 17.5539 434.452 17.0162 436.094 19.1629C438.631 22.4806 435.566 28.1498 430.825 34.3853L433.752 91.9573" stroke="black" stroke-width="2" stroke-linecap="round"/>
<ellipse cx="402.067" cy="24.0871" rx="3.12255" ry="3.70802" transform="rotate(-42.7009 402.067 24.0871)" fill="#EBAFB1"/>
<ellipse cx="431.939" cy="24.0503" rx="3.12255" ry="3.70802" transform="rotate(32.5674 431.939 24.0503)" fill="#EBAFB1"/>
<ellipse cx="423.245" cy="15.5496" rx="3.12255" ry="3.70802" transform="rotate(18.3292 423.245 15.5496)" fill="#EBAFB1"/>
<ellipse cx="410.942" cy="13.8395" rx="3.12255" ry="3.70802" transform="rotate(-13.9917 410.942 13.8395)" fill="#EBAFB1"/>
<path d="M455.415 14.9509C458.163 43.1705 469.253 50.4199 503.814 50.0796C505.063 56.5251 506.306 58.5656 509.279 60.0327L510.84 51.4457L519.037 43.4442C514.301 42.4012 511.532 42.8462 506.351 45.5909C495.099 18.5021 484.349 11.0893 455.415 14.9509Z" fill="#E09B33"/>
<path d="M455.415 14.9509L455.349 14.4553L454.87 14.5192L454.917 14.9994L455.415 14.9509ZM503.814 50.0796L504.305 49.9845L504.226 49.5755L503.809 49.5796L503.814 50.0796ZM509.279 60.0327L509.057 60.481L509.652 60.7745L509.771 60.1221L509.279 60.0327ZM510.84 51.4457L510.491 51.0879L510.376 51.1993L510.348 51.3562L510.84 51.4457ZM519.037 43.4442L519.386 43.8019L520.048 43.155L519.144 42.9559L519.037 43.4442ZM506.351 45.5909L505.889 45.7827L506.1 46.2898L506.585 46.0327L506.351 45.5909ZM454.917 14.9994C456.295 29.1508 459.777 38.2059 467.394 43.6325C474.974 49.0322 486.538 50.7497 503.819 50.5795L503.809 49.5796C486.529 49.7497 475.267 48.0127 467.974 42.818C460.72 37.65 457.282 28.9706 455.912 14.9025L454.917 14.9994ZM503.323 50.1747C503.949 53.405 504.584 55.5938 505.464 57.1671C506.36 58.7705 507.498 59.7115 509.057 60.481L509.5 59.5843C508.087 58.8868 507.117 58.0741 506.336 56.679C505.539 55.2539 504.928 53.1997 504.305 49.9845L503.323 50.1747ZM509.771 60.1221L511.332 51.5351L510.348 51.3562L508.787 59.9432L509.771 60.1221ZM511.189 51.8035L519.386 43.8019L518.687 43.0864L510.491 51.0879L511.189 51.8035ZM519.144 42.9559C516.74 42.4264 514.795 42.2658 512.778 42.6041C510.769 42.941 508.726 43.767 506.117 45.1491L506.585 46.0327C509.157 44.6701 511.089 43.9012 512.944 43.5903C514.79 43.2806 516.597 43.419 518.929 43.9325L519.144 42.9559ZM506.813 45.3991C501.18 31.8371 495.629 23.083 487.776 18.239C479.915 13.3896 469.849 12.52 455.349 14.4553L455.481 15.4465C469.914 13.5202 479.691 14.4262 487.251 19.09C494.82 23.7591 500.271 32.2558 505.889 45.7827L506.813 45.3991Z" fill="#E09B33"/>
<path d="M464.782 91.9573C464.782 91.9573 467.319 38.4837 467.319 34.3853C467.319 30.287 461.269 28.5306 461.269 23.8467C461.269 18.1871 466.163 16.7417 470.832 19.1629C469.773 12.052 470.247 8.8195 472.979 7.45338C478.053 6.08727 480.814 9.31988 482.347 15.8452C483.875 9.92094 487.03 7.45338 491.519 8.8195C494.446 10.3808 495.164 14.8975 491.519 19.1629C495.178 17.5539 499.245 17.0162 500.887 19.1629C503.424 22.4806 500.358 28.1498 495.617 34.3853L498.545 91.9573" stroke="black" stroke-width="2" stroke-linecap="round"/>
<path d="M615.64 49.2989L613.689 47.9328L622.471 43.6393C629.136 46.2041 631.695 46.0556 633.79 42.4684C629.979 42.5852 627.923 42.6102 626.569 41.4926C638.032 33.6629 642.411 29.495 641.987 22.9525L641.857 22.9301C639.091 22.4544 635.931 21.911 631.448 23.7331C624.636 19.4147 623.175 20.585 623.447 27.0508C616.21 23.7435 594.269 25.2178 593.002 36.4184C591.8 41.0846 593.695 45.4544 597.295 48.071C599.854 49.9305 603.273 50.9044 607.053 50.4699C610.189 50.9815 612.693 51.9418 615.64 49.2989Z" fill="#FF7511"/>
<path d="M641.987 22.9525C642.411 29.495 638.032 33.6629 626.569 41.4926C627.923 42.6102 629.979 42.5852 633.79 42.4684C631.695 46.0556 629.136 46.2041 622.471 43.6393L613.689 47.9328L615.64 49.2989C612.693 51.9418 610.189 50.9815 607.053 50.4699C603.273 50.9044 599.854 49.9305 597.295 48.071M641.987 22.9525L641.857 22.9301M641.987 22.9525C641.944 22.945 641.9 22.9376 641.857 22.9301M597.295 48.071C593.695 45.4544 591.8 41.0846 593.002 36.4184C594.269 25.2178 616.21 23.7435 623.447 27.0508C623.175 20.585 624.636 19.4147 631.448 23.7331C635.931 21.911 639.091 22.4544 641.857 22.9301M597.295 48.071C596.124 64.5214 581.612 58.6847 585.391 50.4699C589.169 42.2551 591.245 33.1007 583.829 36.4184" stroke="#FF7511" stroke-linecap="round"/>
<path d="M595.539 91.9572C595.539 91.9572 598.076 38.4837 598.076 34.3853C598.076 30.287 592.026 28.5305 592.026 23.8467C592.026 18.1871 596.919 16.7417 601.589 19.1629C600.53 12.052 601.003 8.81947 603.736 7.45335C608.81 6.08724 611.571 9.31985 613.103 15.8452C614.632 9.92091 617.787 7.45335 622.276 8.81947C625.203 10.3807 625.921 14.8975 622.276 19.1629C625.934 17.5538 630.002 17.0162 631.643 19.1629C634.18 22.4806 631.115 28.1498 626.374 34.3853L629.302 91.9572" stroke="black" stroke-width="2" stroke-linecap="round"/>
<path d="M603.595 1.00388L606.336 6.17785L602.699 6.7901L603.595 1.00388Z" fill="black"/>
<path d="M588.321 15.6102L593.545 18.2562L590.926 20.854L588.321 15.6102Z" fill="black"/>
<path d="M625.619 2.9336L624.747 8.7234L621.458 7.05301L625.619 2.9336Z" fill="black"/>
<path d="M636.795 15.526L634.099 20.7234L631.526 18.0803L636.795 15.526Z" fill="black"/>
<path d="M472.595 1.00388L475.336 6.17785L471.699 6.7901L472.595 1.00388Z" fill="black"/>
<path d="M456.933 16.0639L462.513 17.8358L460.347 20.8206L456.933 16.0639Z" fill="black"/>
<path d="M494.619 2.9336L493.747 8.7234L490.458 7.05301L494.619 2.9336Z" fill="black"/>
<path d="M505.795 15.526L503.099 20.7234L500.526 18.0803L505.795 15.526Z" fill="black"/>
<ellipse cx="858.994" cy="24.4774" rx="3.12255" ry="3.70802" transform="rotate(-42.7009 858.994 24.4774)" fill="#9F9E99"/>
<ellipse cx="888.867" cy="24.4406" rx="3.12255" ry="3.70802" transform="rotate(32.5674 888.867 24.4406)" fill="#9F9E99"/>
<ellipse cx="880.173" cy="15.9399" rx="3.12255" ry="3.70802" transform="rotate(18.3292 880.173 15.9399)" fill="#9F9E99"/>
<ellipse cx="867.869" cy="14.2298" rx="3.12255" ry="3.70802" transform="rotate(-13.9917 867.869 14.2298)" fill="#9F9E99"/>
<path d="M872.904 25.1165C864.707 25.702 860.995 40.1339 869.781 37.997C872.986 40.2982 874.478 40.0661 876.807 37.997C887.9 39.02 881.1 24.531 872.904 25.1165Z" fill="#9F9E99" stroke="#9F9E99" stroke-width="3" stroke-linecap="round"/>
<path d="M856.917 92.3476C856.917 92.3476 859.454 38.874 859.454 34.7757C859.454 30.6773 853.404 28.9209 853.404 24.2371C853.404 18.5775 858.297 17.132 862.967 19.5532C861.908 12.4423 862.381 9.20982 865.114 7.8437C870.188 6.47759 872.949 9.7102 874.481 16.2355C876.01 10.3113 879.165 7.8437 883.654 9.20982C886.581 10.7711 887.299 15.2879 883.654 19.5532C887.312 17.9442 891.38 17.4065 893.022 19.5532C895.559 22.871 892.493 28.5401 887.752 34.7757L890.68 92.3476" stroke="black" stroke-width="2" stroke-linecap="round"/>
<path d="M673.061 36.0454C664.274 38.1824 667.987 23.7505 676.183 23.1649C684.38 22.5794 691.179 37.0684 680.086 36.0454C677.758 38.1145 676.266 38.3466 673.061 36.0454Z" fill="#E09B33"/>
<path d="M673.061 36.0454L673.936 34.8269L673.376 34.4251L672.706 34.5879L673.061 36.0454ZM680.086 36.0454L680.224 34.5518L679.576 34.492L679.09 34.9241L680.086 36.0454ZM672.706 34.5879C670.861 35.0367 670.186 34.5309 669.909 34.1439C669.518 33.5975 669.33 32.5028 669.708 30.9903C670.47 27.9472 673.07 24.8912 676.29 24.6611L676.076 21.6687C671.1 22.0242 667.745 26.4769 666.798 30.262C666.322 32.1634 666.341 34.3127 667.469 35.8895C668.711 37.6258 670.867 38.1226 673.415 37.5029L672.706 34.5879ZM676.29 24.6611C677.875 24.5479 679.48 25.1597 680.889 26.2575C682.3 27.3571 683.404 28.8641 683.971 30.3155C684.559 31.8173 684.465 32.9366 684.057 33.5566C683.7 34.0974 682.739 34.7837 680.224 34.5518L679.949 37.5391C682.98 37.8187 685.329 37.0774 686.561 35.2075C687.742 33.4169 687.516 31.1424 686.765 29.223C685.995 27.2532 684.556 25.3116 682.733 23.8912C680.908 22.469 678.59 21.4892 676.076 21.6687L676.29 24.6611ZM679.09 34.9241C677.98 35.9107 677.368 36.171 676.861 36.1848C676.316 36.1997 675.487 35.9407 673.936 34.8269L672.186 37.2639C673.84 38.4513 675.359 39.2269 676.943 39.1837C678.566 39.1395 679.864 38.2492 681.083 37.1668L679.09 34.9241Z" fill="#E09B33"/>
<path d="M656.879 47.9328V51.836C660.772 54.0868 663.632 54.1816 669.174 53.5924C663.875 52.3436 661.198 51.076 656.879 47.9328Z" fill="#E09B33" stroke="#E09B33" stroke-linecap="round"/>
<path d="M700.009 77.4019V81.2317C692.718 83.4402 687.361 83.5333 676.98 82.9552C686.906 81.7297 691.92 80.486 700.009 77.4019Z" fill="#E09B33" stroke="#E09B33" stroke-linecap="round"/>
<path d="M699.619 62.5698V66.9103C694.799 69.4132 691.258 69.5187 684.396 68.8635C690.957 67.4747 694.272 66.0651 699.619 62.5698Z" fill="#E09B33" stroke="#E09B33" stroke-linecap="round"/>
<path d="M694.935 50.8602V55.2007C689.25 57.7037 685.074 57.8092 676.98 57.154C684.719 55.7651 688.629 54.3556 694.935 50.8602Z" fill="#E09B33" stroke="#E09B33" stroke-linecap="round"/>
<path d="M652 72.718V77.0586C657.438 79.5615 661.433 79.667 669.174 79.0118C661.772 77.623 658.032 76.2134 652 72.718Z" fill="#E09B33" stroke="#E09B33" stroke-linecap="round"/>
<path d="M656.684 59.0569V64.674C663.11 67.9131 667.831 68.0497 676.98 67.2018C668.232 65.4045 663.813 63.5803 656.684 59.0569Z" fill="#E09B33" stroke="#E09B33" stroke-linecap="round"/>
<path d="M660.197 91.9573C660.197 91.9573 662.734 38.4837 662.734 34.3853C662.734 30.287 656.684 28.5306 656.684 23.8467C656.684 18.1871 661.577 16.7417 666.247 19.1629C665.187 12.052 665.661 8.8195 668.393 7.45338C673.468 6.08727 676.229 9.31988 677.761 15.8452C679.29 9.92094 682.445 7.45338 686.934 8.8195C689.861 10.3808 690.578 14.8975 686.934 19.1629C690.592 17.5539 694.66 17.0162 696.301 19.1629C698.838 22.4806 695.773 28.1498 691.032 34.3853L693.959 91.9573" stroke="black" stroke-width="2" stroke-linecap="round"/>
<ellipse cx="662.274" cy="24.0871" rx="3.12255" ry="3.70802" transform="rotate(-42.7009 662.274 24.0871)" fill="#E09B33"/>
<ellipse cx="692.147" cy="24.0503" rx="3.12255" ry="3.70802" transform="rotate(32.5674 692.147 24.0503)" fill="#E09B33"/>
<ellipse cx="683.452" cy="15.5496" rx="3.12255" ry="3.70802" transform="rotate(18.3292 683.452 15.5496)" fill="#E09B33"/>
<ellipse cx="671.149" cy="13.8395" rx="3.12255" ry="3.70802" transform="rotate(-13.9917 671.149 13.8395)" fill="#E09B33"/>
<path d="M737.854 39.5583C729.067 41.6952 732.779 27.2633 740.976 26.6778C749.173 26.0922 755.972 40.5813 744.879 39.5583C742.551 41.6273 741.059 41.8594 737.854 39.5583Z" fill="#EBAFB1"/>
<path d="M737.854 39.5583L738.728 38.3398L738.169 37.9379L737.499 38.1008L737.854 39.5583ZM744.879 39.5583L745.017 38.0646L744.369 38.0049L743.883 38.4369L744.879 39.5583ZM737.499 38.1008C735.654 38.5496 734.979 38.0437 734.702 37.6568C734.311 37.1103 734.123 36.0157 734.501 34.5031C735.263 31.4601 737.862 28.404 741.083 28.174L740.869 25.1816C735.893 25.5371 732.538 29.9898 731.591 33.7748C731.115 35.6763 731.134 37.8255 732.262 39.4023C733.504 41.1386 735.66 41.6354 738.208 41.0158L737.499 38.1008ZM741.083 28.174C742.668 28.0607 744.273 28.6725 745.682 29.7703C747.093 30.87 748.197 32.3769 748.764 33.8283C749.352 35.3301 749.258 36.4494 748.849 37.0695C748.493 37.6103 747.532 38.2965 745.017 38.0646L744.742 41.0519C747.773 41.3315 750.122 40.5903 751.354 38.7204C752.534 36.9297 752.309 34.6552 751.558 32.7358C750.788 30.766 749.348 28.8244 747.526 27.4041C745.701 25.9818 743.383 25.002 740.869 25.1816L741.083 28.174ZM743.883 38.4369C742.773 39.4235 742.161 39.6839 741.654 39.6977C741.109 39.7125 740.28 39.4536 738.728 38.3398L736.979 40.7768C738.633 41.9642 740.152 42.7397 741.736 42.6966C743.358 42.6523 744.657 41.7621 745.876 40.6796L743.883 38.4369Z" fill="#EBAFB1"/>
<path d="M724.99 91.9573C724.99 91.9573 727.527 38.4837 727.527 34.3853C727.527 30.287 721.477 28.5306 721.477 23.8467C721.477 18.1871 726.37 16.7417 731.04 19.1629C729.98 12.052 730.454 8.8195 733.186 7.45338C738.26 6.08727 741.022 9.31988 742.554 15.8452C744.082 9.92094 747.238 7.45338 751.726 8.8195C754.654 10.3808 755.371 14.8975 751.726 19.1629C755.385 17.5539 759.452 17.0162 761.094 19.1629C763.631 22.4806 760.566 28.1498 755.825 34.3853L758.752 91.9573" stroke="black" stroke-width="2" stroke-linecap="round"/>
<ellipse cx="727.067" cy="24.0871" rx="3.12255" ry="3.70802" transform="rotate(-42.7009 727.067 24.0871)" fill="#EBAFB1"/>
<ellipse cx="756.939" cy="24.0503" rx="3.12255" ry="3.70802" transform="rotate(32.5674 756.939 24.0503)" fill="#EBAFB1"/>
<ellipse cx="748.245" cy="15.5496" rx="3.12255" ry="3.70802" transform="rotate(18.3292 748.245 15.5496)" fill="#EBAFB1"/>
<ellipse cx="735.942" cy="13.8395" rx="3.12255" ry="3.70802" transform="rotate(-13.9917 735.942 13.8395)" fill="#EBAFB1"/>
<path d="M780.415 14.9509C783.163 43.1705 794.253 50.4199 828.814 50.0796C830.063 56.5251 831.306 58.5656 834.279 60.0327L835.84 51.4457L844.037 43.4442C839.301 42.4012 836.532 42.8462 831.351 45.5909C820.099 18.5021 809.349 11.0893 780.415 14.9509Z" fill="#E09B33"/>
<path d="M780.415 14.9509L780.349 14.4553L779.87 14.5192L779.917 14.9994L780.415 14.9509ZM828.814 50.0796L829.305 49.9845L829.226 49.5755L828.809 49.5796L828.814 50.0796ZM834.279 60.0327L834.057 60.481L834.652 60.7745L834.771 60.1221L834.279 60.0327ZM835.84 51.4457L835.491 51.0879L835.376 51.1993L835.348 51.3562L835.84 51.4457ZM844.037 43.4442L844.386 43.8019L845.048 43.155L844.144 42.9559L844.037 43.4442ZM831.351 45.5909L830.889 45.7827L831.1 46.2898L831.585 46.0327L831.351 45.5909ZM779.917 14.9994C781.295 29.1508 784.777 38.2059 792.394 43.6325C799.974 49.0322 811.538 50.7497 828.819 50.5795L828.809 49.5796C811.529 49.7497 800.267 48.0127 792.974 42.818C785.72 37.65 782.282 28.9706 780.912 14.9025L779.917 14.9994ZM828.323 50.1747C828.949 53.405 829.584 55.5938 830.464 57.1671C831.36 58.7705 832.498 59.7115 834.057 60.481L834.5 59.5843C833.087 58.8868 832.117 58.0741 831.336 56.679C830.539 55.2539 829.928 53.1997 829.305 49.9845L828.323 50.1747ZM834.771 60.1221L836.332 51.5351L835.348 51.3562L833.787 59.9432L834.771 60.1221ZM836.189 51.8035L844.386 43.8019L843.687 43.0864L835.491 51.0879L836.189 51.8035ZM844.144 42.9559C841.74 42.4264 839.795 42.2658 837.778 42.6041C835.769 42.941 833.726 43.767 831.117 45.1491L831.585 46.0327C834.157 44.6701 836.089 43.9012 837.944 43.5903C839.79 43.2806 841.597 43.419 843.929 43.9325L844.144 42.9559ZM831.813 45.3991C826.18 31.8371 820.629 23.083 812.776 18.239C804.915 13.3896 794.849 12.52 780.349 14.4553L780.481 15.4465C794.914 13.5202 804.691 14.4262 812.251 19.09C819.82 23.7591 825.271 32.2558 830.889 45.7827L831.813 45.3991Z" fill="#E09B33"/>
<path d="M789.782 91.9573C789.782 91.9573 792.319 38.4837 792.319 34.3853C792.319 30.287 786.269 28.5306 786.269 23.8467C786.269 18.1871 791.163 16.7417 795.832 19.1629C794.773 12.052 795.247 8.8195 797.979 7.45338C803.053 6.08727 805.814 9.31988 807.347 15.8452C808.875 9.92094 812.03 7.45338 816.519 8.8195C819.446 10.3808 820.164 14.8975 816.519 19.1629C820.178 17.5539 824.245 17.0162 825.887 19.1629C828.424 22.4806 825.358 28.1498 820.617 34.3853L823.545 91.9573" stroke="black" stroke-width="2" stroke-linecap="round"/>
<path d="M940.64 49.2989L938.689 47.9328L947.471 43.6393C954.136 46.2041 956.695 46.0556 958.79 42.4684C954.979 42.5852 952.923 42.6102 951.569 41.4926C963.032 33.6629 967.411 29.495 966.987 22.9525L966.857 22.9301C964.091 22.4544 960.931 21.911 956.448 23.7331C949.636 19.4147 948.175 20.585 948.447 27.0508C941.21 23.7435 919.269 25.2178 918.002 36.4184C916.8 41.0846 918.695 45.4544 922.295 48.071C924.854 49.9305 928.273 50.9044 932.053 50.4699C935.189 50.9815 937.693 51.9418 940.64 49.2989Z" fill="#FF7511"/>
<path d="M966.987 22.9525C967.411 29.495 963.032 33.6629 951.569 41.4926C952.923 42.6102 954.979 42.5852 958.79 42.4684C956.695 46.0556 954.136 46.2041 947.471 43.6393L938.689 47.9328L940.64 49.2989C937.693 51.9418 935.189 50.9815 932.053 50.4699C928.273 50.9044 924.854 49.9305 922.295 48.071M966.987 22.9525L966.857 22.9301M966.987 22.9525C966.944 22.945 966.9 22.9376 966.857 22.9301M922.295 48.071C918.695 45.4544 916.8 41.0846 918.002 36.4184C919.269 25.2178 941.21 23.7435 948.447 27.0508C948.175 20.585 949.636 19.4147 956.448 23.7331C960.931 21.911 964.091 22.4544 966.857 22.9301M922.295 48.071C921.124 64.5214 906.612 58.6847 910.391 50.4699C914.169 42.2551 916.245 33.1007 908.829 36.4184" stroke="#FF7511" stroke-linecap="round"/>
<path d="M920.539 91.9572C920.539 91.9572 923.076 38.4837 923.076 34.3853C923.076 30.287 917.026 28.5305 917.026 23.8467C917.026 18.1871 921.919 16.7417 926.589 19.1629C925.53 12.052 926.003 8.81947 928.736 7.45335C933.81 6.08724 936.571 9.31985 938.103 15.8452C939.632 9.92091 942.787 7.45335 947.276 8.81947C950.203 10.3807 950.921 14.8975 947.276 19.1629C950.934 17.5538 955.002 17.0162 956.643 19.1629C959.18 22.4806 956.115 28.1498 951.374 34.3853L954.302 91.9572" stroke="black" stroke-width="2" stroke-linecap="round"/>
<path d="M928.595 1.00388L931.336 6.17785L927.699 6.7901L928.595 1.00388Z" fill="black"/>
<path d="M913.321 15.6102L918.545 18.2562L915.926 20.854L913.321 15.6102Z" fill="black"/>
<path d="M950.619 2.9336L949.747 8.7234L946.458 7.05301L950.619 2.9336Z" fill="black"/>
<path d="M961.795 15.526L959.099 20.7234L956.526 18.0803L961.795 15.526Z" fill="black"/>
<path d="M797.595 1.00388L800.336 6.17785L796.699 6.7901L797.595 1.00388Z" fill="black"/>
<path d="M781.933 16.0639L787.513 17.8358L785.347 20.8206L781.933 16.0639Z" fill="black"/>
<path d="M819.619 2.9336L818.747 8.7234L815.458 7.05301L819.619 2.9336Z" fill="black"/>
<path d="M830.795 15.526L828.099 20.7234L825.526 18.0803L830.795 15.526Z" fill="black"/>
<ellipse cx="1184.99" cy="24.4774" rx="3.12255" ry="3.70802" transform="rotate(-42.7009 1184.99 24.4774)" fill="#9F9E99"/>
<ellipse cx="1214.87" cy="24.4406" rx="3.12255" ry="3.70802" transform="rotate(32.5674 1214.87 24.4406)" fill="#9F9E99"/>
<ellipse cx="1206.17" cy="15.9399" rx="3.12255" ry="3.70802" transform="rotate(18.3292 1206.17 15.9399)" fill="#9F9E99"/>
<ellipse cx="1193.87" cy="14.2298" rx="3.12255" ry="3.70802" transform="rotate(-13.9917 1193.87 14.2298)" fill="#9F9E99"/>
<path d="M1198.9 25.1165C1190.71 25.702 1186.99 40.1339 1195.78 37.997C1198.99 40.2982 1200.48 40.0661 1202.81 37.997C1213.9 39.02 1207.1 24.531 1198.9 25.1165Z" fill="#9F9E99" stroke="#9F9E99" stroke-width="3" stroke-linecap="round"/>
<path d="M1182.92 92.3476C1182.92 92.3476 1185.45 38.874 1185.45 34.7757C1185.45 30.6773 1179.4 28.9209 1179.4 24.2371C1179.4 18.5775 1184.3 17.132 1188.97 19.5532C1187.91 12.4423 1188.38 9.20982 1191.11 7.8437C1196.19 6.47759 1198.95 9.7102 1200.48 16.2355C1202.01 10.3113 1205.17 7.8437 1209.65 9.20982C1212.58 10.7711 1213.3 15.2879 1209.65 19.5532C1213.31 17.9442 1217.38 17.4065 1219.02 19.5532C1221.56 22.871 1218.49 28.5401 1213.75 34.7757L1216.68 92.3476" stroke="black" stroke-width="2" stroke-linecap="round"/>
<path d="M999.061 36.0454C990.274 38.1824 993.987 23.7505 1002.18 23.1649C1010.38 22.5794 1017.18 37.0684 1006.09 36.0454C1003.76 38.1145 1002.27 38.3466 999.061 36.0454Z" fill="#E09B33"/>
<path d="M999.061 36.0454L999.936 34.8269L999.376 34.4251L998.706 34.5879L999.061 36.0454ZM1006.09 36.0454L1006.22 34.5518L1005.58 34.492L1005.09 34.9241L1006.09 36.0454ZM998.706 34.5879C996.861 35.0367 996.186 34.5309 995.909 34.1439C995.518 33.5975 995.33 32.5028 995.708 30.9903C996.47 27.9472 999.07 24.8912 1002.29 24.6611L1002.08 21.6687C997.1 22.0242 993.745 26.4769 992.798 30.262C992.322 32.1634 992.341 34.3127 993.469 35.8895C994.711 37.6258 996.867 38.1226 999.415 37.5029L998.706 34.5879ZM1002.29 24.6611C1003.88 24.5479 1005.48 25.1597 1006.89 26.2575C1008.3 27.3571 1009.4 28.8641 1009.97 30.3155C1010.56 31.8173 1010.47 32.9366 1010.06 33.5566C1009.7 34.0974 1008.74 34.7837 1006.22 34.5518L1005.95 37.5391C1008.98 37.8187 1011.33 37.0774 1012.56 35.2075C1013.74 33.4169 1013.52 31.1424 1012.77 29.223C1012 27.2532 1010.56 25.3116 1008.73 23.8912C1006.91 22.469 1004.59 21.4892 1002.08 21.6687L1002.29 24.6611ZM1005.09 34.9241C1003.98 35.9107 1003.37 36.171 1002.86 36.1848C1002.32 36.1997 1001.49 35.9407 999.936 34.8269L998.186 37.2639C999.84 38.4513 1001.36 39.2269 1002.94 39.1837C1004.57 39.1395 1005.86 38.2492 1007.08 37.1668L1005.09 34.9241Z" fill="#E09B33"/>
<path d="M982.879 47.9328V51.836C986.772 54.0868 989.632 54.1816 995.174 53.5924C989.875 52.3436 987.198 51.076 982.879 47.9328Z" fill="#E09B33" stroke="#E09B33" stroke-linecap="round"/>
<path d="M1026.01 77.4019V81.2317C1018.72 83.4402 1013.36 83.5333 1002.98 82.9552C1012.91 81.7297 1017.92 80.486 1026.01 77.4019Z" fill="#E09B33" stroke="#E09B33" stroke-linecap="round"/>
<path d="M1025.62 62.5698V66.9103C1020.8 69.4132 1017.26 69.5187 1010.4 68.8635C1016.96 67.4747 1020.27 66.0651 1025.62 62.5698Z" fill="#E09B33" stroke="#E09B33" stroke-linecap="round"/>
<path d="M1020.93 50.8602V55.2007C1015.25 57.7037 1011.07 57.8092 1002.98 57.154C1010.72 55.7651 1014.63 54.3556 1020.93 50.8602Z" fill="#E09B33" stroke="#E09B33" stroke-linecap="round"/>
<path d="M978 72.718V77.0586C983.438 79.5615 987.433 79.667 995.174 79.0118C987.772 77.623 984.032 76.2134 978 72.718Z" fill="#E09B33" stroke="#E09B33" stroke-linecap="round"/>
<path d="M982.684 59.0569V64.674C989.11 67.9131 993.831 68.0497 1002.98 67.2018C994.232 65.4045 989.813 63.5803 982.684 59.0569Z" fill="#E09B33" stroke="#E09B33" stroke-linecap="round"/>
<path d="M986.197 91.9573C986.197 91.9573 988.734 38.4837 988.734 34.3853C988.734 30.287 982.684 28.5306 982.684 23.8467C982.684 18.1871 987.577 16.7417 992.247 19.1629C991.187 12.052 991.661 8.8195 994.393 7.45338C999.468 6.08727 1002.23 9.31988 1003.76 15.8452C1005.29 9.92094 1008.44 7.45338 1012.93 8.8195C1015.86 10.3808 1016.58 14.8975 1012.93 19.1629C1016.59 17.5539 1020.66 17.0162 1022.3 19.1629C1024.84 22.4806 1021.77 28.1498 1017.03 34.3853L1019.96 91.9573" stroke="black" stroke-width="2" stroke-linecap="round"/>
<ellipse cx="988.274" cy="24.0871" rx="3.12255" ry="3.70802" transform="rotate(-42.7009 988.274 24.0871)" fill="#E09B33"/>
<ellipse cx="1018.15" cy="24.0503" rx="3.12255" ry="3.70802" transform="rotate(32.5674 1018.15 24.0503)" fill="#E09B33"/>
<ellipse cx="1009.45" cy="15.5496" rx="3.12255" ry="3.70802" transform="rotate(18.3292 1009.45 15.5496)" fill="#E09B33"/>
<ellipse cx="997.149" cy="13.8395" rx="3.12255" ry="3.70802" transform="rotate(-13.9917 997.149 13.8395)" fill="#E09B33"/>
<path d="M1063.85 39.5583C1055.07 41.6952 1058.78 27.2633 1066.98 26.6778C1075.17 26.0922 1081.97 40.5813 1070.88 39.5583C1068.55 41.6273 1067.06 41.8594 1063.85 39.5583Z" fill="#EBAFB1"/>
<path d="M1063.85 39.5583L1064.73 38.3398L1064.17 37.9379L1063.5 38.1008L1063.85 39.5583ZM1070.88 39.5583L1071.02 38.0646L1070.37 38.0049L1069.88 38.4369L1070.88 39.5583ZM1063.5 38.1008C1061.65 38.5496 1060.98 38.0437 1060.7 37.6568C1060.31 37.1103 1060.12 36.0157 1060.5 34.5031C1061.26 31.4601 1063.86 28.404 1067.08 28.174L1066.87 25.1816C1061.89 25.5371 1058.54 29.9898 1057.59 33.7748C1057.12 35.6763 1057.13 37.8255 1058.26 39.4023C1059.5 41.1386 1061.66 41.6354 1064.21 41.0158L1063.5 38.1008ZM1067.08 28.174C1068.67 28.0607 1070.27 28.6725 1071.68 29.7703C1073.09 30.87 1074.2 32.3769 1074.76 33.8283C1075.35 35.3301 1075.26 36.4494 1074.85 37.0695C1074.49 37.6103 1073.53 38.2965 1071.02 38.0646L1070.74 41.0519C1073.77 41.3315 1076.12 40.5903 1077.35 38.7204C1078.53 36.9297 1078.31 34.6552 1077.56 32.7358C1076.79 30.766 1075.35 28.8244 1073.53 27.4041C1071.7 25.9818 1069.38 25.002 1066.87 25.1816L1067.08 28.174ZM1069.88 38.4369C1068.77 39.4235 1068.16 39.6839 1067.65 39.6977C1067.11 39.7125 1066.28 39.4536 1064.73 38.3398L1062.98 40.7768C1064.63 41.9642 1066.15 42.7397 1067.74 42.6966C1069.36 42.6523 1070.66 41.7621 1071.88 40.6796L1069.88 38.4369Z" fill="#EBAFB1"/>
<path d="M1050.99 91.9573C1050.99 91.9573 1053.53 38.4837 1053.53 34.3853C1053.53 30.287 1047.48 28.5306 1047.48 23.8467C1047.48 18.1871 1052.37 16.7417 1057.04 19.1629C1055.98 12.052 1056.45 8.8195 1059.19 7.45338C1064.26 6.08727 1067.02 9.31988 1068.55 15.8452C1070.08 9.92094 1073.24 7.45338 1077.73 8.8195C1080.65 10.3808 1081.37 14.8975 1077.73 19.1629C1081.38 17.5539 1085.45 17.0162 1087.09 19.1629C1089.63 22.4806 1086.57 28.1498 1081.82 34.3853L1084.75 91.9573" stroke="black" stroke-width="2" stroke-linecap="round"/>
<ellipse cx="1053.07" cy="24.0871" rx="3.12255" ry="3.70802" transform="rotate(-42.7009 1053.07 24.0871)" fill="#EBAFB1"/>
<ellipse cx="1082.94" cy="24.0503" rx="3.12255" ry="3.70802" transform="rotate(32.5674 1082.94 24.0503)" fill="#EBAFB1"/>
<ellipse cx="1074.25" cy="15.5496" rx="3.12255" ry="3.70802" transform="rotate(18.3292 1074.25 15.5496)" fill="#EBAFB1"/>
<ellipse cx="1061.94" cy="13.8395" rx="3.12255" ry="3.70802" transform="rotate(-13.9917 1061.94 13.8395)" fill="#EBAFB1"/>
<path d="M1106.41 14.9509C1109.16 43.1705 1120.25 50.4199 1154.81 50.0796C1156.06 56.5251 1157.31 58.5656 1160.28 60.0327L1161.84 51.4457L1170.04 43.4442C1165.3 42.4012 1162.53 42.8462 1157.35 45.5909C1146.1 18.5021 1135.35 11.0893 1106.41 14.9509Z" fill="#E09B33"/>
<path d="M1106.41 14.9509L1106.35 14.4553L1105.87 14.5192L1105.92 14.9994L1106.41 14.9509ZM1154.81 50.0796L1155.31 49.9845L1155.23 49.5755L1154.81 49.5796L1154.81 50.0796ZM1160.28 60.0327L1160.06 60.481L1160.65 60.7745L1160.77 60.1221L1160.28 60.0327ZM1161.84 51.4457L1161.49 51.0879L1161.38 51.1993L1161.35 51.3562L1161.84 51.4457ZM1170.04 43.4442L1170.39 43.8019L1171.05 43.155L1170.14 42.9559L1170.04 43.4442ZM1157.35 45.5909L1156.89 45.7827L1157.1 46.2898L1157.59 46.0327L1157.35 45.5909ZM1105.92 14.9994C1107.3 29.1508 1110.78 38.2059 1118.39 43.6325C1125.97 49.0322 1137.54 50.7497 1154.82 50.5795L1154.81 49.5796C1137.53 49.7497 1126.27 48.0127 1118.97 42.818C1111.72 37.65 1108.28 28.9706 1106.91 14.9025L1105.92 14.9994ZM1154.32 50.1747C1154.95 53.405 1155.58 55.5938 1156.46 57.1671C1157.36 58.7705 1158.5 59.7115 1160.06 60.481L1160.5 59.5843C1159.09 58.8868 1158.12 58.0741 1157.34 56.679C1156.54 55.2539 1155.93 53.1997 1155.31 49.9845L1154.32 50.1747ZM1160.77 60.1221L1162.33 51.5351L1161.35 51.3562L1159.79 59.9432L1160.77 60.1221ZM1162.19 51.8035L1170.39 43.8019L1169.69 43.0864L1161.49 51.0879L1162.19 51.8035ZM1170.14 42.9559C1167.74 42.4264 1165.8 42.2658 1163.78 42.6041C1161.77 42.941 1159.73 43.767 1157.12 45.1491L1157.59 46.0327C1160.16 44.6701 1162.09 43.9012 1163.94 43.5903C1165.79 43.2806 1167.6 43.419 1169.93 43.9325L1170.14 42.9559ZM1157.81 45.3991C1152.18 31.8371 1146.63 23.083 1138.78 18.239C1130.92 13.3896 1120.85 12.52 1106.35 14.4553L1106.48 15.4465C1120.91 13.5202 1130.69 14.4262 1138.25 19.09C1145.82 23.7591 1151.27 32.2558 1156.89 45.7827L1157.81 45.3991Z" fill="#E09B33"/>
<path d="M1115.78 91.9573C1115.78 91.9573 1118.32 38.4837 1118.32 34.3853C1118.32 30.287 1112.27 28.5306 1112.27 23.8467C1112.27 18.1871 1117.16 16.7417 1121.83 19.1629C1120.77 12.052 1121.25 8.8195 1123.98 7.45338C1129.05 6.08727 1131.81 9.31988 1133.35 15.8452C1134.88 9.92094 1138.03 7.45338 1142.52 8.8195C1145.45 10.3808 1146.16 14.8975 1142.52 19.1629C1146.18 17.5539 1150.25 17.0162 1151.89 19.1629C1154.42 22.4806 1151.36 28.1498 1146.62 34.3853L1149.54 91.9573" stroke="black" stroke-width="2" stroke-linecap="round"/>
<path d="M1266.64 49.2989L1264.69 47.9328L1273.47 43.6393C1280.14 46.2041 1282.69 46.0556 1284.79 42.4684C1280.98 42.5852 1278.92 42.6102 1277.57 41.4926C1289.03 33.6629 1293.41 29.495 1292.99 22.9525L1292.86 22.9301C1290.09 22.4544 1286.93 21.911 1282.45 23.7331C1275.64 19.4147 1274.17 20.585 1274.45 27.0508C1267.21 23.7435 1245.27 25.2178 1244 36.4184C1242.8 41.0846 1244.7 45.4544 1248.3 48.071C1250.85 49.9305 1254.27 50.9044 1258.05 50.4699C1261.19 50.9815 1263.69 51.9418 1266.64 49.2989Z" fill="#FF7511"/>
<path d="M1292.99 22.9525C1293.41 29.495 1289.03 33.6629 1277.57 41.4926C1278.92 42.6102 1280.98 42.5852 1284.79 42.4684C1282.69 46.0556 1280.14 46.2041 1273.47 43.6393L1264.69 47.9328L1266.64 49.2989C1263.69 51.9418 1261.19 50.9815 1258.05 50.4699C1254.27 50.9044 1250.85 49.9305 1248.3 48.071M1292.99 22.9525L1292.86 22.9301M1292.99 22.9525C1292.94 22.945 1292.9 22.9376 1292.86 22.9301M1248.3 48.071C1244.7 45.4544 1242.8 41.0846 1244 36.4184C1245.27 25.2178 1267.21 23.7435 1274.45 27.0508C1274.17 20.585 1275.64 19.4147 1282.45 23.7331C1286.93 21.911 1290.09 22.4544 1292.86 22.9301M1248.3 48.071C1247.12 64.5214 1232.61 58.6847 1236.39 50.4699C1240.17 42.2551 1242.25 33.1007 1234.83 36.4184" stroke="#FF7511" stroke-linecap="round"/>
<path d="M1246.54 91.9572C1246.54 91.9572 1249.08 38.4837 1249.08 34.3853C1249.08 30.287 1243.03 28.5305 1243.03 23.8467C1243.03 18.1871 1247.92 16.7417 1252.59 19.1629C1251.53 12.052 1252 8.81947 1254.74 7.45335C1259.81 6.08724 1262.57 9.31985 1264.1 15.8452C1265.63 9.92091 1268.79 7.45335 1273.28 8.81947C1276.2 10.3807 1276.92 14.8975 1273.28 19.1629C1276.93 17.5538 1281 17.0162 1282.64 19.1629C1285.18 22.4806 1282.11 28.1498 1277.37 34.3853L1280.3 91.9572" stroke="black" stroke-width="2" stroke-linecap="round"/>
<path d="M1254.6 1.00388L1257.34 6.17785L1253.7 6.7901L1254.6 1.00388Z" fill="black"/>
<path d="M1239.32 15.6102L1244.54 18.2562L1241.93 20.854L1239.32 15.6102Z" fill="black"/>
<path d="M1276.62 2.9336L1275.75 8.7234L1272.46 7.05301L1276.62 2.9336Z" fill="black"/>
<path d="M1287.8 15.526L1285.1 20.7234L1282.53 18.0803L1287.8 15.526Z" fill="black"/>
<path d="M1123.6 1.00388L1126.34 6.17785L1122.7 6.7901L1123.6 1.00388Z" fill="black"/>
<path d="M1107.93 16.0639L1113.51 17.8358L1111.35 20.8206L1107.93 16.0639Z" fill="black"/>
<path d="M1145.62 2.9336L1144.75 8.7234L1141.46 7.05301L1145.62 2.9336Z" fill="black"/>
<path d="M1156.8 15.526L1154.1 20.7234L1151.53 18.0803L1156.8 15.526Z" fill="black"/>
<ellipse cx="1512.99" cy="24.4774" rx="3.12255" ry="3.70802" transform="rotate(-42.7009 1512.99 24.4774)" fill="#9F9E99"/>
<ellipse cx="1542.87" cy="24.4406" rx="3.12255" ry="3.70802" transform="rotate(32.5674 1542.87 24.4406)" fill="#9F9E99"/>
<ellipse cx="1534.17" cy="15.9399" rx="3.12255" ry="3.70802" transform="rotate(18.3292 1534.17 15.9399)" fill="#9F9E99"/>
<ellipse cx="1521.87" cy="14.2298" rx="3.12255" ry="3.70802" transform="rotate(-13.9917 1521.87 14.2298)" fill="#9F9E99"/>
<path d="M1526.9 25.1165C1518.71 25.702 1514.99 40.1339 1523.78 37.997C1526.99 40.2982 1528.48 40.0661 1530.81 37.997C1541.9 39.02 1535.1 24.531 1526.9 25.1165Z" fill="#9F9E99" stroke="#9F9E99" stroke-width="3" stroke-linecap="round"/>
<path d="M1510.92 92.3476C1510.92 92.3476 1513.45 38.874 1513.45 34.7757C1513.45 30.6773 1507.4 28.9209 1507.4 24.2371C1507.4 18.5775 1512.3 17.132 1516.97 19.5532C1515.91 12.4423 1516.38 9.20982 1519.11 7.8437C1524.19 6.47759 1526.95 9.7102 1528.48 16.2355C1530.01 10.3113 1533.17 7.8437 1537.65 9.20982C1540.58 10.7711 1541.3 15.2879 1537.65 19.5532C1541.31 17.9442 1545.38 17.4065 1547.02 19.5532C1549.56 22.871 1546.49 28.5401 1541.75 34.7757L1544.68 92.3476" stroke="black" stroke-width="2" stroke-linecap="round"/>
<path d="M1327.06 36.0454C1318.27 38.1824 1321.99 23.7505 1330.18 23.1649C1338.38 22.5794 1345.18 37.0684 1334.09 36.0454C1331.76 38.1145 1330.27 38.3466 1327.06 36.0454Z" fill="#E09B33"/>
<path d="M1327.06 36.0454L1327.94 34.8269L1327.38 34.4251L1326.71 34.5879L1327.06 36.0454ZM1334.09 36.0454L1334.22 34.5518L1333.58 34.492L1333.09 34.9241L1334.09 36.0454ZM1326.71 34.5879C1324.86 35.0367 1324.19 34.5309 1323.91 34.1439C1323.52 33.5975 1323.33 32.5028 1323.71 30.9903C1324.47 27.9472 1327.07 24.8912 1330.29 24.6611L1330.08 21.6687C1325.1 22.0242 1321.75 26.4769 1320.8 30.262C1320.32 32.1634 1320.34 34.3127 1321.47 35.8895C1322.71 37.6258 1324.87 38.1226 1327.42 37.5029L1326.71 34.5879ZM1330.29 24.6611C1331.88 24.5479 1333.48 25.1597 1334.89 26.2575C1336.3 27.3571 1337.4 28.8641 1337.97 30.3155C1338.56 31.8173 1338.47 32.9366 1338.06 33.5566C1337.7 34.0974 1336.74 34.7837 1334.22 34.5518L1333.95 37.5391C1336.98 37.8187 1339.33 37.0774 1340.56 35.2075C1341.74 33.4169 1341.52 31.1424 1340.77 29.223C1340 27.2532 1338.56 25.3116 1336.73 23.8912C1334.91 22.469 1332.59 21.4892 1330.08 21.6687L1330.29 24.6611ZM1333.09 34.9241C1331.98 35.9107 1331.37 36.171 1330.86 36.1848C1330.32 36.1997 1329.49 35.9407 1327.94 34.8269L1326.19 37.2639C1327.84 38.4513 1329.36 39.2269 1330.94 39.1837C1332.57 39.1395 1333.86 38.2492 1335.08 37.1668L1333.09 34.9241Z" fill="#E09B33"/>
<path d="M1310.88 47.9328V51.836C1314.77 54.0868 1317.63 54.1816 1323.17 53.5924C1317.87 52.3436 1315.2 51.076 1310.88 47.9328Z" fill="#E09B33" stroke="#E09B33" stroke-linecap="round"/>
<path d="M1354.01 77.4019V81.2317C1346.72 83.4402 1341.36 83.5333 1330.98 82.9552C1340.91 81.7297 1345.92 80.486 1354.01 77.4019Z" fill="#E09B33" stroke="#E09B33" stroke-linecap="round"/>
<path d="M1353.62 62.5698V66.9103C1348.8 69.4132 1345.26 69.5187 1338.4 68.8635C1344.96 67.4747 1348.27 66.0651 1353.62 62.5698Z" fill="#E09B33" stroke="#E09B33" stroke-linecap="round"/>
<path d="M1348.93 50.8602V55.2007C1343.25 57.7037 1339.07 57.8092 1330.98 57.154C1338.72 55.7651 1342.63 54.3556 1348.93 50.8602Z" fill="#E09B33" stroke="#E09B33" stroke-linecap="round"/>
<path d="M1306 72.718V77.0586C1311.44 79.5615 1315.43 79.667 1323.17 79.0118C1315.77 77.623 1312.03 76.2134 1306 72.718Z" fill="#E09B33" stroke="#E09B33" stroke-linecap="round"/>
<path d="M1310.68 59.0569V64.674C1317.11 67.9131 1321.83 68.0497 1330.98 67.2018C1322.23 65.4045 1317.81 63.5803 1310.68 59.0569Z" fill="#E09B33" stroke="#E09B33" stroke-linecap="round"/>
<path d="M1314.2 91.9573C1314.2 91.9573 1316.73 38.4837 1316.73 34.3853C1316.73 30.287 1310.68 28.5306 1310.68 23.8467C1310.68 18.1871 1315.58 16.7417 1320.25 19.1629C1319.19 12.052 1319.66 8.8195 1322.39 7.45338C1327.47 6.08727 1330.23 9.31988 1331.76 15.8452C1333.29 9.92094 1336.44 7.45338 1340.93 8.8195C1343.86 10.3808 1344.58 14.8975 1340.93 19.1629C1344.59 17.5539 1348.66 17.0162 1350.3 19.1629C1352.84 22.4806 1349.77 28.1498 1345.03 34.3853L1347.96 91.9573" stroke="black" stroke-width="2" stroke-linecap="round"/>
<ellipse cx="1316.27" cy="24.0871" rx="3.12255" ry="3.70802" transform="rotate(-42.7009 1316.27 24.0871)" fill="#E09B33"/>
<ellipse cx="1346.15" cy="24.0503" rx="3.12255" ry="3.70802" transform="rotate(32.5674 1346.15 24.0503)" fill="#E09B33"/>
<ellipse cx="1337.45" cy="15.5496" rx="3.12255" ry="3.70802" transform="rotate(18.3292 1337.45 15.5496)" fill="#E09B33"/>
<ellipse cx="1325.15" cy="13.8395" rx="3.12255" ry="3.70802" transform="rotate(-13.9917 1325.15 13.8395)" fill="#E09B33"/>
<path d="M1391.85 39.5583C1383.07 41.6952 1386.78 27.2633 1394.98 26.6778C1403.17 26.0922 1409.97 40.5813 1398.88 39.5583C1396.55 41.6273 1395.06 41.8594 1391.85 39.5583Z" fill="#EBAFB1"/>
<path d="M1391.85 39.5583L1392.73 38.3398L1392.17 37.9379L1391.5 38.1008L1391.85 39.5583ZM1398.88 39.5583L1399.02 38.0646L1398.37 38.0049L1397.88 38.4369L1398.88 39.5583ZM1391.5 38.1008C1389.65 38.5496 1388.98 38.0437 1388.7 37.6568C1388.31 37.1103 1388.12 36.0157 1388.5 34.5031C1389.26 31.4601 1391.86 28.404 1395.08 28.174L1394.87 25.1816C1389.89 25.5371 1386.54 29.9898 1385.59 33.7748C1385.12 35.6763 1385.13 37.8255 1386.26 39.4023C1387.5 41.1386 1389.66 41.6354 1392.21 41.0158L1391.5 38.1008ZM1395.08 28.174C1396.67 28.0607 1398.27 28.6725 1399.68 29.7703C1401.09 30.87 1402.2 32.3769 1402.76 33.8283C1403.35 35.3301 1403.26 36.4494 1402.85 37.0695C1402.49 37.6103 1401.53 38.2965 1399.02 38.0646L1398.74 41.0519C1401.77 41.3315 1404.12 40.5903 1405.35 38.7204C1406.53 36.9297 1406.31 34.6552 1405.56 32.7358C1404.79 30.766 1403.35 28.8244 1401.53 27.4041C1399.7 25.9818 1397.38 25.002 1394.87 25.1816L1395.08 28.174ZM1397.88 38.4369C1396.77 39.4235 1396.16 39.6839 1395.65 39.6977C1395.11 39.7125 1394.28 39.4536 1392.73 38.3398L1390.98 40.7768C1392.63 41.9642 1394.15 42.7397 1395.74 42.6966C1397.36 42.6523 1398.66 41.7621 1399.88 40.6796L1397.88 38.4369Z" fill="#EBAFB1"/>
<path d="M1378.99 91.9573C1378.99 91.9573 1381.53 38.4837 1381.53 34.3853C1381.53 30.287 1375.48 28.5306 1375.48 23.8467C1375.48 18.1871 1380.37 16.7417 1385.04 19.1629C1383.98 12.052 1384.45 8.8195 1387.19 7.45338C1392.26 6.08727 1395.02 9.31988 1396.55 15.8452C1398.08 9.92094 1401.24 7.45338 1405.73 8.8195C1408.65 10.3808 1409.37 14.8975 1405.73 19.1629C1409.38 17.5539 1413.45 17.0162 1415.09 19.1629C1417.63 22.4806 1414.57 28.1498 1409.82 34.3853L1412.75 91.9573" stroke="black" stroke-width="2" stroke-linecap="round"/>
<ellipse cx="1381.07" cy="24.0871" rx="3.12255" ry="3.70802" transform="rotate(-42.7009 1381.07 24.0871)" fill="#EBAFB1"/>
<ellipse cx="1410.94" cy="24.0503" rx="3.12255" ry="3.70802" transform="rotate(32.5674 1410.94 24.0503)" fill="#EBAFB1"/>
<ellipse cx="1402.25" cy="15.5496" rx="3.12255" ry="3.70802" transform="rotate(18.3292 1402.25 15.5496)" fill="#EBAFB1"/>
<ellipse cx="1389.94" cy="13.8395" rx="3.12255" ry="3.70802" transform="rotate(-13.9917 1389.94 13.8395)" fill="#EBAFB1"/>
<path d="M1434.41 14.9509C1437.16 43.1705 1448.25 50.4199 1482.81 50.0796C1484.06 56.5251 1485.31 58.5656 1488.28 60.0327L1489.84 51.4457L1498.04 43.4442C1493.3 42.4012 1490.53 42.8462 1485.35 45.5909C1474.1 18.5021 1463.35 11.0893 1434.41 14.9509Z" fill="#E09B33"/>
<path d="M1434.41 14.9509L1434.35 14.4553L1433.87 14.5192L1433.92 14.9994L1434.41 14.9509ZM1482.81 50.0796L1483.31 49.9845L1483.23 49.5755L1482.81 49.5796L1482.81 50.0796ZM1488.28 60.0327L1488.06 60.481L1488.65 60.7745L1488.77 60.1221L1488.28 60.0327ZM1489.84 51.4457L1489.49 51.0879L1489.38 51.1993L1489.35 51.3562L1489.84 51.4457ZM1498.04 43.4442L1498.39 43.8019L1499.05 43.155L1498.14 42.9559L1498.04 43.4442ZM1485.35 45.5909L1484.89 45.7827L1485.1 46.2898L1485.59 46.0327L1485.35 45.5909ZM1433.92 14.9994C1435.3 29.1508 1438.78 38.2059 1446.39 43.6325C1453.97 49.0322 1465.54 50.7497 1482.82 50.5795L1482.81 49.5796C1465.53 49.7497 1454.27 48.0127 1446.97 42.818C1439.72 37.65 1436.28 28.9706 1434.91 14.9025L1433.92 14.9994ZM1482.32 50.1747C1482.95 53.405 1483.58 55.5938 1484.46 57.1671C1485.36 58.7705 1486.5 59.7115 1488.06 60.481L1488.5 59.5843C1487.09 58.8868 1486.12 58.0741 1485.34 56.679C1484.54 55.2539 1483.93 53.1997 1483.31 49.9845L1482.32 50.1747ZM1488.77 60.1221L1490.33 51.5351L1489.35 51.3562L1487.79 59.9432L1488.77 60.1221ZM1490.19 51.8035L1498.39 43.8019L1497.69 43.0864L1489.49 51.0879L1490.19 51.8035ZM1498.14 42.9559C1495.74 42.4264 1493.8 42.2658 1491.78 42.6041C1489.77 42.941 1487.73 43.767 1485.12 45.1491L1485.59 46.0327C1488.16 44.6701 1490.09 43.9012 1491.94 43.5903C1493.79 43.2806 1495.6 43.419 1497.93 43.9325L1498.14 42.9559ZM1485.81 45.3991C1480.18 31.8371 1474.63 23.083 1466.78 18.239C1458.92 13.3896 1448.85 12.52 1434.35 14.4553L1434.48 15.4465C1448.91 13.5202 1458.69 14.4262 1466.25 19.09C1473.82 23.7591 1479.27 32.2558 1484.89 45.7827L1485.81 45.3991Z" fill="#E09B33"/>
<path d="M1443.78 91.9573C1443.78 91.9573 1446.32 38.4837 1446.32 34.3853C1446.32 30.287 1440.27 28.5306 1440.27 23.8467C1440.27 18.1871 1445.16 16.7417 1449.83 19.1629C1448.77 12.052 1449.25 8.8195 1451.98 7.45338C1457.05 6.08727 1459.81 9.31988 1461.35 15.8452C1462.88 9.92094 1466.03 7.45338 1470.52 8.8195C1473.45 10.3808 1474.16 14.8975 1470.52 19.1629C1474.18 17.5539 1478.25 17.0162 1479.89 19.1629C1482.42 22.4806 1479.36 28.1498 1474.62 34.3853L1477.54 91.9573" stroke="black" stroke-width="2" stroke-linecap="round"/>
<path d="M1594.64 49.2989L1592.69 47.9328L1601.47 43.6393C1608.14 46.2041 1610.69 46.0556 1612.79 42.4684C1608.98 42.5852 1606.92 42.6102 1605.57 41.4926C1617.03 33.6629 1621.41 29.495 1620.99 22.9525L1620.86 22.9301C1618.09 22.4544 1614.93 21.911 1610.45 23.7331C1603.64 19.4147 1602.17 20.585 1602.45 27.0508C1595.21 23.7435 1573.27 25.2178 1572 36.4184C1570.8 41.0846 1572.7 45.4544 1576.3 48.071C1578.85 49.9305 1582.27 50.9044 1586.05 50.4699C1589.19 50.9815 1591.69 51.9418 1594.64 49.2989Z" fill="#FF7511"/>
<path d="M1620.99 22.9525C1621.41 29.495 1617.03 33.6629 1605.57 41.4926C1606.92 42.6102 1608.98 42.5852 1612.79 42.4684C1610.69 46.0556 1608.14 46.2041 1601.47 43.6393L1592.69 47.9328L1594.64 49.2989C1591.69 51.9418 1589.19 50.9815 1586.05 50.4699C1582.27 50.9044 1578.85 49.9305 1576.3 48.071M1620.99 22.9525L1620.86 22.9301M1620.99 22.9525C1620.94 22.945 1620.9 22.9376 1620.86 22.9301M1576.3 48.071C1572.7 45.4544 1570.8 41.0846 1572 36.4184C1573.27 25.2178 1595.21 23.7435 1602.45 27.0508C1602.17 20.585 1603.64 19.4147 1610.45 23.7331C1614.93 21.911 1618.09 22.4544 1620.86 22.9301M1576.3 48.071C1575.12 64.5214 1560.61 58.6847 1564.39 50.4699C1568.17 42.2551 1570.25 33.1007 1562.83 36.4184" stroke="#FF7511" stroke-linecap="round"/>
<path d="M1574.54 91.9572C1574.54 91.9572 1577.08 38.4837 1577.08 34.3853C1577.08 30.287 1571.03 28.5305 1571.03 23.8467C1571.03 18.1871 1575.92 16.7417 1580.59 19.1629C1579.53 12.052 1580 8.81947 1582.74 7.45335C1587.81 6.08724 1590.57 9.31985 1592.1 15.8452C1593.63 9.92091 1596.79 7.45335 1601.28 8.81947C1604.2 10.3807 1604.92 14.8975 1601.28 19.1629C1604.93 17.5538 1609 17.0162 1610.64 19.1629C1613.18 22.4806 1610.11 28.1498 1605.37 34.3853L1608.3 91.9572" stroke="black" stroke-width="2" stroke-linecap="round"/>
<path d="M1582.6 1.00388L1585.34 6.17785L1581.7 6.7901L1582.6 1.00388Z" fill="black"/>
<path d="M1567.32 15.6102L1572.54 18.2562L1569.93 20.854L1567.32 15.6102Z" fill="black"/>
<path d="M1604.62 2.9336L1603.75 8.7234L1600.46 7.05301L1604.62 2.9336Z" fill="black"/>
<path d="M1615.8 15.526L1613.1 20.7234L1610.53 18.0803L1615.8 15.526Z" fill="black"/>
<path d="M1451.6 1.00388L1454.34 6.17785L1450.7 6.7901L1451.6 1.00388Z" fill="black"/>
<path d="M1435.93 16.0639L1441.51 17.8358L1439.35 20.8206L1435.93 16.0639Z" fill="black"/>
<path d="M1473.62 2.9336L1472.75 8.7234L1469.46 7.05301L1473.62 2.9336Z" fill="black"/>
<path d="M1484.8 15.526L1482.1 20.7234L1479.53 18.0803L1484.8 15.526Z" fill="black"/>
<path d="M1836.92 92.3476C1836.92 92.3476 1839.45 38.874 1839.45 34.7757C1839.45 30.6773 1833.4 28.9209 1833.4 24.2371C1833.4 18.5775 1838.3 17.132 1842.97 19.5532C1841.91 12.4423 1842.38 9.20982 1845.11 7.8437C1850.19 6.47759 1852.95 9.7102 1854.48 16.2355C1856.01 10.3113 1859.17 7.8437 1863.65 9.20982C1866.58 10.7711 1867.3 15.2879 1863.65 19.5532C1867.31 17.9442 1871.38 17.4065 1873.02 19.5532C1875.56 22.871 1872.49 28.5401 1867.75 34.7757L1870.68 92.3476" stroke="black" stroke-width="2" stroke-linecap="round"/>
<path d="M1636.88 47.9328V51.836C1640.77 54.0868 1643.63 54.1816 1649.17 53.5924C1643.87 52.3436 1641.2 51.076 1636.88 47.9328Z" fill="#E09B33" stroke="#E09B33" stroke-linecap="round"/>
<path d="M1680.01 77.4019V81.2317C1672.72 83.4402 1667.36 83.5333 1656.98 82.9552C1666.91 81.7297 1671.92 80.486 1680.01 77.4019Z" fill="#E09B33" stroke="#E09B33" stroke-linecap="round"/>
<path d="M1679.62 62.5698V66.9103C1674.8 69.4132 1671.26 69.5187 1664.4 68.8635C1670.96 67.4747 1674.27 66.0651 1679.62 62.5698Z" fill="#E09B33" stroke="#E09B33" stroke-linecap="round"/>
<path d="M1674.93 50.8602V55.2007C1669.25 57.7037 1665.07 57.8092 1656.98 57.154C1664.72 55.7651 1668.63 54.3556 1674.93 50.8602Z" fill="#E09B33" stroke="#E09B33" stroke-linecap="round"/>
<path d="M1632 72.718V77.0586C1637.44 79.5615 1641.43 79.667 1649.17 79.0118C1641.77 77.623 1638.03 76.2134 1632 72.718Z" fill="#E09B33" stroke="#E09B33" stroke-linecap="round"/>
<path d="M1636.68 59.0569V64.674C1643.11 67.9131 1647.83 68.0497 1656.98 67.2018C1648.23 65.4045 1643.81 63.5803 1636.68 59.0569Z" fill="#E09B33" stroke="#E09B33" stroke-linecap="round"/>
<path d="M1640.2 91.9573C1640.2 91.9573 1642.73 38.4837 1642.73 34.3853C1642.73 30.287 1636.68 28.5306 1636.68 23.8467C1636.68 18.1871 1641.58 16.7417 1646.25 19.1629C1645.19 12.052 1645.66 8.8195 1648.39 7.45338C1653.47 6.08727 1656.23 9.31988 1657.76 15.8452C1659.29 9.92094 1662.44 7.45338 1666.93 8.8195C1669.86 10.3808 1670.58 14.8975 1666.93 19.1629C1670.59 17.5539 1674.66 17.0162 1676.3 19.1629C1678.84 22.4806 1675.77 28.1498 1671.03 34.3853L1673.96 91.9573" stroke="black" stroke-width="2" stroke-linecap="round"/>
<path d="M1704.99 91.9573C1704.99 91.9573 1707.53 38.4837 1707.53 34.3853C1707.53 30.287 1701.48 28.5306 1701.48 23.8467C1701.48 18.1871 1706.37 16.7417 1711.04 19.1629C1709.98 12.052 1710.45 8.8195 1713.19 7.45338C1718.26 6.08727 1721.02 9.31988 1722.55 15.8452C1724.08 9.92094 1727.24 7.45338 1731.73 8.8195C1734.65 10.3808 1735.37 14.8975 1731.73 19.1629C1735.38 17.5539 1739.45 17.0162 1741.09 19.1629C1743.63 22.4806 1740.57 28.1498 1735.82 34.3853L1738.75 91.9573" stroke="black" stroke-width="2" stroke-linecap="round"/>
<path d="M1760.41 14.9509C1763.16 43.1705 1774.25 50.4199 1808.81 50.0796C1810.06 56.5251 1811.31 58.5656 1814.28 60.0327L1815.84 51.4457L1824.04 43.4442C1819.3 42.4012 1816.53 42.8462 1811.35 45.5909C1800.1 18.5021 1789.35 11.0893 1760.41 14.9509Z" fill="#E09B33"/>
<path d="M1760.41 14.9509L1760.35 14.4553L1759.87 14.5192L1759.92 14.9994L1760.41 14.9509ZM1808.81 50.0796L1809.31 49.9845L1809.23 49.5755L1808.81 49.5796L1808.81 50.0796ZM1814.28 60.0327L1814.06 60.481L1814.65 60.7745L1814.77 60.1221L1814.28 60.0327ZM1815.84 51.4457L1815.49 51.0879L1815.38 51.1993L1815.35 51.3562L1815.84 51.4457ZM1824.04 43.4442L1824.39 43.8019L1825.05 43.155L1824.14 42.9559L1824.04 43.4442ZM1811.35 45.5909L1810.89 45.7827L1811.1 46.2898L1811.59 46.0327L1811.35 45.5909ZM1759.92 14.9994C1761.3 29.1508 1764.78 38.2059 1772.39 43.6325C1779.97 49.0322 1791.54 50.7497 1808.82 50.5795L1808.81 49.5796C1791.53 49.7497 1780.27 48.0127 1772.97 42.818C1765.72 37.65 1762.28 28.9706 1760.91 14.9025L1759.92 14.9994ZM1808.32 50.1747C1808.95 53.405 1809.58 55.5938 1810.46 57.1671C1811.36 58.7705 1812.5 59.7115 1814.06 60.481L1814.5 59.5843C1813.09 58.8868 1812.12 58.0741 1811.34 56.679C1810.54 55.2539 1809.93 53.1997 1809.31 49.9845L1808.32 50.1747ZM1814.77 60.1221L1816.33 51.5351L1815.35 51.3562L1813.79 59.9432L1814.77 60.1221ZM1816.19 51.8035L1824.39 43.8019L1823.69 43.0864L1815.49 51.0879L1816.19 51.8035ZM1824.14 42.9559C1821.74 42.4264 1819.8 42.2658 1817.78 42.6041C1815.77 42.941 1813.73 43.767 1811.12 45.1491L1811.59 46.0327C1814.16 44.6701 1816.09 43.9012 1817.94 43.5903C1819.79 43.2806 1821.6 43.419 1823.93 43.9325L1824.14 42.9559ZM1811.81 45.3991C1806.18 31.8371 1800.63 23.083 1792.78 18.239C1784.92 13.3896 1774.85 12.52 1760.35 14.4553L1760.48 15.4465C1774.91 13.5202 1784.69 14.4262 1792.25 19.09C1799.82 23.7591 1805.27 32.2558 1810.89 45.7827L1811.81 45.3991Z" fill="#E09B33"/>
<path d="M1769.78 91.9573C1769.78 91.9573 1772.32 38.4837 1772.32 34.3853C1772.32 30.287 1766.27 28.5306 1766.27 23.8467C1766.27 18.1871 1771.16 16.7417 1775.83 19.1629C1774.77 12.052 1775.25 8.8195 1777.98 7.45338C1783.05 6.08727 1785.81 9.31988 1787.35 15.8452C1788.88 9.92094 1792.03 7.45338 1796.52 8.8195C1799.45 10.3808 1800.16 14.8975 1796.52 19.1629C1800.18 17.5539 1804.25 17.0162 1805.89 19.1629C1808.42 22.4806 1805.36 28.1498 1800.62 34.3853L1803.54 91.9573" stroke="black" stroke-width="2" stroke-linecap="round"/>
<ellipse cx="1838.99" cy="24.4774" rx="3.12255" ry="3.70802" transform="rotate(-42.7009 1838.99 24.4774)" fill="#9F9E99"/>
<ellipse cx="1868.87" cy="24.4406" rx="3.12255" ry="3.70802" transform="rotate(32.5674 1868.87 24.4406)" fill="#9F9E99"/>
<ellipse cx="1860.17" cy="15.9399" rx="3.12255" ry="3.70802" transform="rotate(18.3292 1860.17 15.9399)" fill="#9F9E99"/>
<ellipse cx="1847.87" cy="14.2298" rx="3.12255" ry="3.70802" transform="rotate(-13.9917 1847.87 14.2298)" fill="#9F9E99"/>
<path d="M1852.9 25.1165C1844.71 25.702 1840.99 40.1339 1849.78 37.997C1852.99 40.2982 1854.48 40.0661 1856.81 37.997C1867.9 39.02 1861.1 24.531 1852.9 25.1165Z" fill="#9F9E99" stroke="#9F9E99" stroke-width="3" stroke-linecap="round"/>
<path d="M1653.06 36.0454C1644.27 38.1824 1647.99 23.7505 1656.18 23.1649C1664.38 22.5794 1671.18 37.0684 1660.09 36.0454C1657.76 38.1145 1656.27 38.3466 1653.06 36.0454Z" fill="#E09B33"/>
<path d="M1653.06 36.0454L1653.94 34.8269L1653.38 34.4251L1652.71 34.5879L1653.06 36.0454ZM1660.09 36.0454L1660.22 34.5518L1659.58 34.492L1659.09 34.9241L1660.09 36.0454ZM1652.71 34.5879C1650.86 35.0367 1650.19 34.5309 1649.91 34.1439C1649.52 33.5975 1649.33 32.5028 1649.71 30.9903C1650.47 27.9472 1653.07 24.8912 1656.29 24.6611L1656.08 21.6687C1651.1 22.0242 1647.75 26.4769 1646.8 30.262C1646.32 32.1634 1646.34 34.3127 1647.47 35.8895C1648.71 37.6258 1650.87 38.1226 1653.42 37.5029L1652.71 34.5879ZM1656.29 24.6611C1657.88 24.5479 1659.48 25.1597 1660.89 26.2575C1662.3 27.3571 1663.4 28.8641 1663.97 30.3155C1664.56 31.8173 1664.47 32.9366 1664.06 33.5566C1663.7 34.0974 1662.74 34.7837 1660.22 34.5518L1659.95 37.5391C1662.98 37.8187 1665.33 37.0774 1666.56 35.2075C1667.74 33.4169 1667.52 31.1424 1666.77 29.223C1666 27.2532 1664.56 25.3116 1662.73 23.8912C1660.91 22.469 1658.59 21.4892 1656.08 21.6687L1656.29 24.6611ZM1659.09 34.9241C1657.98 35.9107 1657.37 36.171 1656.86 36.1848C1656.32 36.1997 1655.49 35.9407 1653.94 34.8269L1652.19 37.2639C1653.84 38.4513 1655.36 39.2269 1656.94 39.1837C1658.57 39.1395 1659.86 38.2492 1661.08 37.1668L1659.09 34.9241Z" fill="#E09B33"/>
<ellipse cx="1642.27" cy="24.0871" rx="3.12255" ry="3.70802" transform="rotate(-42.7009 1642.27 24.0871)" fill="#E09B33"/>
<ellipse cx="1672.15" cy="24.0503" rx="3.12255" ry="3.70802" transform="rotate(32.5674 1672.15 24.0503)" fill="#E09B33"/>
<ellipse cx="1663.45" cy="15.5496" rx="3.12255" ry="3.70802" transform="rotate(18.3292 1663.45 15.5496)" fill="#E09B33"/>
<ellipse cx="1651.15" cy="13.8395" rx="3.12255" ry="3.70802" transform="rotate(-13.9917 1651.15 13.8395)" fill="#E09B33"/>
<path d="M1717.85 39.5583C1709.07 41.6952 1712.78 27.2633 1720.98 26.6778C1729.17 26.0922 1735.97 40.5813 1724.88 39.5583C1722.55 41.6273 1721.06 41.8594 1717.85 39.5583Z" fill="#EBAFB1"/>
<path d="M1717.85 39.5583L1718.73 38.3398L1718.17 37.9379L1717.5 38.1008L1717.85 39.5583ZM1724.88 39.5583L1725.02 38.0646L1724.37 38.0049L1723.88 38.4369L1724.88 39.5583ZM1717.5 38.1008C1715.65 38.5496 1714.98 38.0437 1714.7 37.6568C1714.31 37.1103 1714.12 36.0157 1714.5 34.5031C1715.26 31.4601 1717.86 28.404 1721.08 28.174L1720.87 25.1816C1715.89 25.5371 1712.54 29.9898 1711.59 33.7748C1711.12 35.6763 1711.13 37.8255 1712.26 39.4023C1713.5 41.1386 1715.66 41.6354 1718.21 41.0158L1717.5 38.1008ZM1721.08 28.174C1722.67 28.0607 1724.27 28.6725 1725.68 29.7703C1727.09 30.87 1728.2 32.3769 1728.76 33.8283C1729.35 35.3301 1729.26 36.4494 1728.85 37.0695C1728.49 37.6103 1727.53 38.2965 1725.02 38.0646L1724.74 41.0519C1727.77 41.3315 1730.12 40.5903 1731.35 38.7204C1732.53 36.9297 1732.31 34.6552 1731.56 32.7358C1730.79 30.766 1729.35 28.8244 1727.53 27.4041C1725.7 25.9818 1723.38 25.002 1720.87 25.1816L1721.08 28.174ZM1723.88 38.4369C1722.77 39.4235 1722.16 39.6839 1721.65 39.6977C1721.11 39.7125 1720.28 39.4536 1718.73 38.3398L1716.98 40.7768C1718.63 41.9642 1720.15 42.7397 1721.74 42.6966C1723.36 42.6523 1724.66 41.7621 1725.88 40.6796L1723.88 38.4369Z" fill="#EBAFB1"/>
<ellipse cx="1707.07" cy="24.0871" rx="3.12255" ry="3.70802" transform="rotate(-42.7009 1707.07 24.0871)" fill="#EBAFB1"/>
<ellipse cx="1736.94" cy="24.0503" rx="3.12255" ry="3.70802" transform="rotate(32.5674 1736.94 24.0503)" fill="#EBAFB1"/>
<ellipse cx="1728.25" cy="15.5496" rx="3.12255" ry="3.70802" transform="rotate(18.3292 1728.25 15.5496)" fill="#EBAFB1"/>
<ellipse cx="1715.94" cy="13.8395" rx="3.12255" ry="3.70802" transform="rotate(-13.9917 1715.94 13.8395)" fill="#EBAFB1"/>
<path d="M1777.6 1.00388L1780.34 6.17785L1776.7 6.7901L1777.6 1.00388Z" fill="black"/>
<path d="M1761.93 16.0639L1767.51 17.8358L1765.35 20.8206L1761.93 16.0639Z" fill="black"/>
<path d="M1799.62 2.9336L1798.75 8.7234L1795.46 7.05301L1799.62 2.9336Z" fill="black"/>
<path d="M1811.8 15.526L1809.1 20.7234L1806.53 18.0803L1811.8 15.526Z" fill="black"/>
</svg>
